<?xml version="1.0" encoding="utf-8"?>
<svg xmlns:dc="http://purl.org/dc/elements/1.1/" xmlns:cc="http://creativecommons.org/ns#" xmlns:rdf="http://www.w3.org/1999/02/22-rdf-syntax-ns#" xmlns:svg="http://www.w3.org/2000/svg" xmlns="http://www.w3.org/2000/svg" xmlns:sodipodi="http://sodipodi.sourceforge.net/DTD/sodipodi-0.dtd" xmlns:inkscape="http://www.inkscape.org/namespaces/inkscape" width="197.94891" height="180.76749" id="svg5598" sodipodi:version="0.32" inkscape:version="0.46" version="1.0" sodipodi:docname="Arkansas Gubernatorial Election Results by County, 2010.svg" inkscape:output_extension="org.inkscape.output.svg.inkscape">
  <defs id="defs5600">
    <inkscape:perspective sodipodi:type="inkscape:persp3d" inkscape:vp_x="0 : 526.18109 : 1" inkscape:vp_y="0 : 1000 : 0" inkscape:vp_z="744.09448 : 526.18109 : 1" inkscape:persp3d-origin="372.04724 : 350.78739 : 1" id="perspective5606"/>
  </defs>
  <sodipodi:namedview id="base" pagecolor="#ffffff" bordercolor="#666666" borderopacity="1.0" gridtolerance="10000" guidetolerance="10" objecttolerance="10" inkscape:pageopacity="0.0" inkscape:pageshadow="2" inkscape:zoom="1.5719459" inkscape:cx="288.06326" inkscape:cy="105.50232" inkscape:document-units="px" inkscape:current-layer="layer1" showgrid="false" inkscape:window-width="1024" inkscape:window-height="721" inkscape:window-x="0" inkscape:window-y="20"/>
  <metadata id="metadata5603">
    <rdf:RDF>
      <cc:Work rdf:about="">
        <dc:format>image/svg+xml</dc:format>
        <dc:type rdf:resource="http://purl.org/dc/dcmitype/StillImage"/>
      </cc:Work>
    </rdf:RDF>
  </metadata>
  <g inkscape:label="Layer 1" inkscape:groupmode="layer" id="layer1" transform="translate(-312.22404,-317.42865)">
    <path style="font-size:12px;fill:#698dc5;fill-opacity:1;fill-rule:nonzero;stroke:#ffffff;stroke-width:1.13758183000000000" d="M 451.74984,463.23109 L 452.28631,464.71367 L 452.33705,464.74266 L 454.31623,466.09112 L 455.93293,467.18221 L 456.24104,468.27327 L 455.7698,469.20487 L 453.75801,469.7921 L 455.71905,475.39976 L 457.04213,477.79942 L 458.05709,478.87601 L 458.16946,482.42837 L 458.16946,482.46824 L 456.94427,487.55392 L 456.91163,487.58655 L 455.7698,488.877 L 455.45444,489.23586 L 451.60121,489.38447 L 444.93509,489.65635 L 443.97088,489.71072 L 443.23865,471.75677 L 442.99216,463.55733 L 447.01214,463.35797 L 447.226,464.76442 L 448.28447,465.41326 L 451.14449,465.33714 L 451.74984,463.23109" id="AR_Chicot" inkscape:label="Chicot, AR"/>
    <path style="font-size:12px;fill:#698dc5;fill-opacity:1;fill-rule:nonzero;stroke:#ffffff;stroke-width:1.13758183000000000" d="M 422.53707,472.2425 L 443.23865,471.75677 L 443.97088,489.71072 L 420.23165,490.67492 L 417.25926,483.51582 L 418.17273,481.16691 L 419.61543,479.28562 L 421.32636,477.90092 L 422.09846,477.68706 L 423.22217,476.73733 L 423.74414,473.12698 L 422.53707,472.2425" id="AR_Ashley" inkscape:label="Ashley, AR"/>
    <path style="font-size:12px;fill:#698dc5;fill-opacity:1;fill-rule:nonzero;stroke:#ffffff;stroke-width:1.13758183000000000" d="M 387.0533,364.23611 L 387.15116,370.53975 L 385.82447,372.43917 L 385.90783,376.50627 L 384.65001,390.29887 L 379.83257,390.81722 L 369.94394,383.84299 L 369.1501,383.40076 L 369.06311,376.68752 L 369.75183,376.6694 L 371.79262,374.51622 L 373.73555,370.53975 L 373.67392,364.3666 L 381.71024,364.32311 L 387.0533,364.23611" id="AR_Pope" inkscape:label="Pope, AR"/>
    <path style="font-size:12px;fill:#698dc5;fill-opacity:1;fill-rule:nonzero;stroke:#ffffff;stroke-width:1.13758183000000000" d="M 381.36589,345.92331 L 381.71024,364.32311 L 373.67392,364.3666 L 360.25831,363.1124 L 359.93207,360.28139 L 359.95019,357.55549 L 360.78029,355.49658 L 361.94024,353.45577 L 361.3059,346.05381 L 368.03365,346.0393 L 381.36589,345.92331" id="AR_Newton" inkscape:label="Newton, AR"/>
    <path style="font-size:12px;fill:#698dc5;fill-opacity:1;fill-rule:nonzero;stroke:#ffffff;stroke-width:1.13758183000000000" d="M 348.51014,337.81812 L 354.42591,337.83986 L 355.43725,338.9962 L 355.94473,340.84125 L 355.94473,342.60655 L 356.27459,343.27716 L 357.30404,344.7126 L 358.6235,346.05381 L 361.3059,346.05381 L 361.94024,353.45577 L 360.78029,355.49658 L 359.95019,357.55549 L 359.93207,360.28139 L 360.25831,363.1124 L 353.59219,363.02904 L 345.52325,363.63439 L 343.56219,363.63439 L 343.56219,360.21977 L 343.92106,348.06197 L 345.87848,341.24724 L 348.51014,337.81812" id="AR_Madison" inkscape:label="Madison, AR"/>
    <path style="font-size:12px;fill:#698dc5;fill-opacity:1;fill-rule:nonzero;stroke:#ffffff;stroke-width:1.13758183000000000" d="M 345.52325,363.63439 L 353.59219,363.02904 L 353.51244,381.55571 L 341.61564,389.41441 L 339.6401,378.56519 L 340.22733,378.25345 L 340.93054,376.00241 L 341.45615,373.32364 L 341.56852,368.35033 L 345.52325,365.00459 L 346.20834,364.32311 L 346.22285,363.63439 L 345.52325,363.63439" id="AR_Franklin" inkscape:label="Franklin, AR"/>
    <path style="font-size:12px;fill:#698dc5;fill-opacity:1;fill-rule:nonzero;stroke:#ffffff;stroke-width:1.13758183000000000" d="M 353.59219,363.02904 L 360.25831,363.1124 L 373.67392,364.3666 L 373.73555,370.53975 L 371.79262,374.51622 L 369.75183,376.6694 L 369.06311,376.68752 L 369.1501,383.40076 L 362.35349,379.5004 L 360.74766,380.13475 L 357.86953,381.05185 L 353.51244,381.55571 L 353.59219,363.02904" id="AR_Johnson" inkscape:label="Johnson, AR"/>
    <path style="font-size:12px;fill:#698dc5;fill-opacity:1;fill-rule:nonzero;stroke:#ffffff;stroke-width:1.13758183000000000" d="M 353.51244,381.55571 L 357.86953,381.05185 L 360.74766,380.13475 L 362.35349,379.5004 L 369.1501,383.40076 L 369.94394,383.84299 L 370.01281,388.77642 L 362.31723,390.50911 L 355.56774,392.19104 L 353.92205,392.85803 L 353.92205,397.01212 L 354.11418,398.26995 L 346.09234,398.31706 L 340.04607,398.26995 L 337.4688,396.94687 L 337.4688,394.86983 L 337.48331,392.81091 L 341.58664,392.85803 L 341.61564,389.41441 L 353.51244,381.55571" id="AR_Logan" inkscape:label="Logan, AR"/>
    <path style="font-size:12px;fill:#698dc5;fill-opacity:1;fill-rule:nonzero;stroke:#ffffff;stroke-width:1.13758183000000000" d="M 369.94394,383.84299 L 379.83257,390.81722 L 384.65001,390.29887 L 379.29246,394.88431 L 376.21858,397.72984 L 373.39481,400.45574 L 372.10074,401.89843 L 370.15781,404.55907 L 370.30643,409.44539 L 366.29008,410.9642 L 354.21567,411.17446 L 354.11418,398.26995 L 353.92205,397.01212 L 353.92205,392.85803 L 355.56774,392.19104 L 362.31723,390.50911 L 370.01281,388.77642 L 369.94394,383.84299" id="AR_Yell" inkscape:label="Yell, AR"/>
    <path style="font-size:12px;fill:#698dc5;fill-opacity:1;fill-rule:nonzero;stroke:#ffffff;stroke-width:1.13758183000000000" d="M 379.29246,394.88431 L 391.53,394.7212 L 394.71263,394.41308 L 395.31798,394.2971 L 395.80733,394.11948 L 397.70677,392.54991 L 397.88439,392.73478 L 398.24325,393.69537 L 398.294,394.13397 L 398.149,395.27943 L 397.98225,395.68904 L 397.68864,396.10953 L 397.26452,396.55538 L 396.66281,397.06287 L 396.39819,397.3891 L 396.23144,397.94371 L 396.37644,398.5128 L 396.81868,399.24865 L 397.2174,399.59302 L 397.67052,399.854 L 398.35562,400.06426 L 397.2174,400.85084 L 394.41901,401.55406 L 390.4679,402.32253 L 390.49691,405.03394 L 391.08777,405.01581 L 390.71078,405.85315 L 387.65502,405.04843 L 382.28297,405.04843 L 378.34637,405.21156 L 378.42612,409.26415 L 370.30643,409.44539 L 370.15781,404.55907 L 372.10074,401.89843 L 373.39481,400.45574 L 376.21858,397.72984 L 379.29246,394.88431" id="AR_Perry" inkscape:label="Perry, AR"/>
    <path style="font-size:12px;fill:#698dc5;fill-opacity:1;fill-rule:nonzero;stroke:#ffffff;stroke-width:1.13758183000000000" d="M 385.90783,376.50627 L 399.96143,376.36128 L 400.04117,380.461 L 397.70677,392.54991 L 395.80733,394.11948 L 395.31798,394.2971 L 394.71263,394.41308 L 391.53,394.7212 L 379.29246,394.88431 L 384.65001,390.29887 L 385.90783,376.50627" id="AR_Conway" inkscape:label="Conway, AR"/>
    <path style="font-size:12px;fill:#698dc5;fill-opacity:1;fill-rule:nonzero;stroke:#ffffff;stroke-width:1.13758183000000000" d="M 414.04038,380.18551 L 414.30501,394.11948 L 414.3485,396.66413 L 410.29591,396.733 L 409.10696,400.83634 L 401.36063,400.9161 L 398.35562,400.06426 L 397.67052,399.854 L 397.2174,399.59302 L 396.81868,399.24865 L 396.37644,398.5128 L 396.23144,397.94371 L 396.39819,397.3891 L 396.66281,397.06287 L 397.26452,396.55538 L 397.68864,396.10953 L 397.98225,395.68904 L 398.149,395.27943 L 398.294,394.13397 L 398.24325,393.69537 L 397.88439,392.73478 L 397.70677,392.54991 L 400.04117,380.461 L 408.70097,380.34863 L 414.04038,380.18551" id="AR_Faulkner" inkscape:label="Faulkner, AR"/>
    <path style="font-size:12px;fill:#698dc5;fill-opacity:1;fill-rule:nonzero;stroke:#ffffff;stroke-width:1.13758183000000000" d="M 401.74123,360.59312 L 408.5161,363.94249 L 408.70097,380.34863 L 400.04117,380.461 L 399.96143,376.36128 L 385.90783,376.50627 L 385.82447,372.43917 L 387.15116,370.53975 L 387.0533,364.23611 L 393.78466,364.20349 L 393.71942,360.7925 L 401.74123,360.59312" id="AR_Van_Buren" inkscape:label="Van Buren, AR"/>
    <path style="font-size:12px;fill:#698dc5;fill-opacity:1;fill-rule:nonzero;stroke:#ffffff;stroke-width:1.13758183000000000" d="M 381.36589,345.92331 L 383.39219,345.90881 L 385.45111,347.91336 L 401.44762,347.68861 L 401.49474,351.79196 L 401.74123,360.59312 L 393.71942,360.7925 L 393.78466,364.20349 L 387.0533,364.23611 L 381.71024,364.32311 L 381.36589,345.92331" id="AR_Searcy" inkscape:label="Searcy, AR"/>
    <path style="font-size:12px;fill:#698dc5;fill-opacity:1;fill-rule:nonzero;stroke:#ffffff;stroke-width:1.13758183000000000" d="M 409.41869,344.07826 L 413.89177,347.49288 L 414.10927,347.656 L 414.79073,348.48609 L 414.80886,348.69996 L 413.86278,351.77021 L 421.14512,355.3842 L 422.92856,356.02217 L 423.72965,363.64889 L 408.5161,363.94249 L 401.74123,360.59312 L 401.49474,351.79196 L 405.53283,351.7267 L 409.48394,347.54362 L 409.41869,344.07826" id="AR_Stone" inkscape:label="Stone, AR"/>
    <path style="font-size:12px;fill:#698dc5;fill-opacity:1;fill-rule:nonzero;stroke:#ffffff;stroke-width:1.13758183000000000" d="M 423.72965,363.64889 L 425.70519,371.60546 L 425.80669,375.29918 L 423.87826,379.97163 L 414.04038,380.18551 L 408.70097,380.34863 L 408.5161,363.94249 L 423.72965,363.64889" id="AR_Cleburne" inkscape:label="Cleburne, AR"/>
    <path style="font-size:12px;fill:#698dc5;fill-opacity:1;fill-rule:nonzero;stroke:#ffffff;stroke-width:1.13758183000000000" d="M 425.70519,371.60546 L 433.73064,371.41333 L 442.79281,375.28106 L 439.72254,379.07267 L 439.62467,381.88194 L 439.70804,382.17555 L 440.7375,383.5965 L 439.91828,390.85348 L 439.11719,391.93368 L 426.42292,395.29756 L 421.03275,394.80821 L 419.25295,394.18473 L 414.30501,394.11948 L 414.04038,380.18551 L 423.87826,379.97163 L 425.80669,375.29918 L 425.70519,371.60546" id="AR_White" inkscape:label="White, AR"/>
    <path style="font-size:12px;fill:#698dc5;fill-opacity:1;fill-rule:nonzero;stroke:#ffffff;stroke-width:1.13758183000000000" d="M 441.37185,354.07562 L 447.33475,353.81101 L 447.12451,354.63023 L 446.74753,355.74306 L 445.70357,358.17533 L 442.55356,365.21845 L 441.74884,371.23209 L 436.65228,371.39521 L 433.73064,371.41333 L 425.70519,371.60546 L 423.72965,363.64889 L 422.92856,356.02217 L 427.99611,352.29582 L 437.29026,352.10007 L 437.34101,354.19162 L 441.37185,354.07562" id="AR_Independence" inkscape:label="Independence, AR"/>
    <path style="font-size:12px;fill:#698dc5;fill-opacity:1;fill-rule:nonzero;stroke:#ffffff;stroke-width:1.13758183000000000" d="M 447.33475,353.81101 L 453.59489,353.71675 L 453.8595,362.0322 L 454.41048,374.51622 L 454.62435,378.68481 L 446.60616,378.94218 L 446.34153,374.79171 L 442.6623,375.02009 L 442.79281,375.28106 L 433.73064,371.41333 L 436.65228,371.39521 L 441.74884,371.23209 L 442.55356,365.21845 L 445.70357,358.17533 L 446.74753,355.74306 L 447.12451,354.63023 L 447.33475,353.81101" id="AR_Jackson" inkscape:label="Jackson, AR"/>
    <path style="font-size:12px;fill:#698dc5;fill-opacity:1;fill-rule:nonzero;stroke:#ffffff;stroke-width:1.13758183000000000" d="M 442.79281,375.28106 L 442.6623,375.02009 L 446.34153,374.79171 L 446.60616,378.94218 L 454.62435,378.68481 L 455.01584,388.36681 L 451.30761,395.43168 L 447.96185,395.52592 L 446.25817,396.50464 L 445.95006,397.94371 L 445.99718,399.93376 L 443.18429,400.06426 L 443.05742,393.51412 L 439.41806,393.67724 L 439.23319,393.15889 L 439.11719,391.93368 L 439.91828,390.85348 L 440.7375,383.5965 L 439.70804,382.17555 L 439.62467,381.88194 L 439.72254,379.07267 L 442.79281,375.28106" id="AR_Woodruff" inkscape:label="Woodruff, AR"/>
    <path style="font-size:12px;fill:#698dc5;fill-opacity:1;fill-rule:nonzero;stroke:#ffffff;stroke-width:1.13758183000000000" d="M 475.48544,387.43886 L 479.37491,387.02925 L 479.70114,393.87661 L 479.73377,398.49831 L 459.33305,399.51327 L 455.45444,399.47702 L 453.44989,399.59302 L 453.52964,401.68093 L 451.30761,395.43168 L 455.01584,388.36681 L 475.48544,387.43886" id="AR_St._Francis" inkscape:label="St. Francis, AR"/>
    <path style="font-size:12px;fill:#698dc5;fill-opacity:1;fill-rule:nonzero;stroke:#ffffff;stroke-width:1.13758183000000000" d="M 487.93683,372.89952 L 490.4706,375.39344 L 490.6156,375.88641 L 492.13442,386.60514 L 492.11993,386.65588 L 492.11993,386.69938 L 492.10543,386.72838 L 492.03656,386.8335 L 491.46744,387.53311 L 487.46198,390.6106 L 483.65587,391.86481 L 483.19914,393.32201 L 483.26439,393.97448 L 484.22498,400.28175 L 479.96214,401.84405 L 479.73377,398.49831 L 479.70114,393.87661 L 479.37491,387.02925 L 475.48544,387.43886 L 474.70246,373.45413 L 482.8584,373.1279 L 487.93683,372.89952" id="AR_Crittenden" inkscape:label="Crittenden, AR"/>
    <path style="font-size:12px;fill:#698dc5;fill-opacity:1;fill-rule:nonzero;stroke:#ffffff;stroke-width:1.13758183000000000" d="M 474.70246,373.45413 L 475.48544,387.43886 L 455.01584,388.36681 L 454.62435,378.68481 L 454.41048,374.51622 L 457.85773,374.3676 L 466.61539,373.53751 L 470.60274,373.35627 L 474.70246,373.45413" id="AR_Cross" inkscape:label="Cross, AR"/>
    <path style="font-size:12px;fill:#698dc5;fill-opacity:1;fill-rule:nonzero;stroke:#ffffff;stroke-width:1.13758183000000000" d="M 453.8595,362.0322 L 460.93161,361.80021 L 475.94579,361.02086 L 482.12255,360.83962 L 482.8584,373.1279 L 474.70246,373.45413 L 470.60274,373.35627 L 466.61539,373.53751 L 457.85773,374.3676 L 454.41048,374.51622 L 453.8595,362.0322" id="AR_Poinsett" inkscape:label="Poinsett, AR"/>
    <path style="font-size:12px;fill:#698dc5;fill-opacity:1;fill-rule:nonzero;stroke:#ffffff;stroke-width:1.13758183000000000" d="M 502.03392,345.40133 L 504.03122,349.81278 L 502.99814,349.79466 L 502.31667,349.91066 L 501.50106,350.33476 L 501.37782,350.41813 L 501.13859,350.62839 L 497.83995,357.67148 L 496.80687,367.57098 L 487.93683,372.89952 L 482.8584,373.1279 L 482.12255,360.83962 L 481.20547,346.92013 L 493.55537,346.0393 L 502.03392,345.40133" id="AR_Mississippi" inkscape:label="Mississippi, AR"/>
    <path style="font-size:12px;fill:#698dc5;fill-opacity:1;fill-rule:nonzero;stroke:#ffffff;stroke-width:1.13758183000000000" d="M 481.20547,346.92013 L 482.12255,360.83962 L 475.94579,361.02086 L 460.93161,361.80021 L 453.8595,362.0322 L 453.59489,353.71675 L 460.14502,349.46843 L 477.5951,348.6347 L 478.2222,347.11588 L 481.20547,346.92013" id="AR_Craighead" inkscape:label="Craighead, AR"/>
    <path style="font-size:12px;fill:#698dc5;fill-opacity:1;fill-rule:nonzero;stroke:#ffffff;stroke-width:1.13758183000000000" d="M 428.04323,337.60788 L 427.99611,352.29582 L 422.92856,356.02217 L 421.14512,355.3842 L 413.86278,351.77021 L 414.80886,348.69996 L 414.79073,348.48609 L 414.10927,347.656 L 413.89177,347.49288 L 409.41869,344.07826 L 408.68284,344.07826 L 408.65022,342.12083 L 410.66202,341.28347 L 410.61128,337.98124 L 428.04323,337.60788" id="AR_Izard" inkscape:label="Izard, AR"/>
    <path style="font-size:12px;fill:#698dc5;fill-opacity:1;fill-rule:nonzero;stroke:#ffffff;stroke-width:1.13758183000000000" d="M 444.19925,336.62554 L 448.74483,340.63101 L 451.2931,342.85304 L 452.46756,341.21824 L 461.27597,340.84125 L 463.51614,340.74338 L 463.53063,340.92462 L 462.82378,342.68993 L 461.79433,343.68314 L 461.25785,344.07826 L 459.78977,348.17797 L 460.14502,349.46843 L 453.59489,353.71675 L 447.33475,353.81101 L 441.37185,354.07562 L 441.22686,347.80461 L 440.91875,340.69626 L 440.868,338.06461 L 441.5241,337.36138 L 444.19925,336.62554" id="AR_Lawrence" inkscape:label="Lawrence, AR"/>
    <path style="font-size:12px;fill:#698dc5;fill-opacity:1;fill-rule:nonzero;stroke:#ffffff;stroke-width:1.13758183000000000" d="M 438.12398,325.64945 L 438.13847,326.10618 L 440.42938,328.4261 L 441.78508,329.07857 L 443.28578,331.17011 L 444.06874,333.60603 L 444.19925,336.62554 L 441.5241,337.36138 L 440.868,338.06461 L 440.91875,340.69626 L 441.22686,347.80461 L 441.37185,354.07562 L 437.34101,354.19162 L 437.29026,352.10007 L 427.99611,352.29582 L 428.04323,337.60788 L 432.75194,337.55712 L 436.67041,331.98933 L 436.52541,325.69657 L 438.12398,325.64945" id="AR_Sharp" inkscape:label="Sharp, AR"/>
    <path style="font-size:12px;fill:#698dc5;fill-opacity:1;fill-rule:nonzero;stroke:#ffffff;stroke-width:1.13758183000000000" d="M 461.09473,335.32421 L 464.48035,335.07409 L 476.66351,334.78048 L 479.34228,336.00568 L 479.42566,337.39764 L 483.9966,337.06777 L 478.2222,347.11588 L 477.5951,348.6347 L 460.14502,349.46843 L 459.78977,348.17797 L 461.25785,344.07826 L 461.79433,343.68314 L 462.82378,342.68993 L 463.53063,340.92462 L 463.51614,340.74338 L 461.27597,340.84125 L 461.09473,335.32421" id="AR_Greene" inkscape:label="Greene, AR"/>
    <path style="font-size:12px;fill:#698dc5;fill-opacity:1;fill-rule:nonzero;stroke:#ffffff;stroke-width:1.13758183000000000" d="M 469.08392,323.95302 L 482.3328,323.19904 L 483.32963,323.13379 L 484.80133,323.08668 L 488.13258,327.79175 L 488.49506,328.27748 L 488.73794,331.98933 L 488.34282,333.06592 L 488.08183,333.47553 L 483.9966,337.06777 L 479.42566,337.39764 L 479.34228,336.00568 L 476.66351,334.78048 L 464.48035,335.07409 L 461.09473,335.32421 L 461.31947,324.3735 L 469.08392,323.95302" id="AR_Clay" inkscape:label="Clay, AR"/>
    <path style="font-size:12px;fill:#698dc5;fill-opacity:1;fill-rule:nonzero;stroke:#ffffff;stroke-width:1.13758183000000000" d="M 461.31947,324.3735 L 461.09473,335.32421 L 461.27597,340.84125 L 452.46756,341.21824 L 451.2931,342.85304 L 448.74483,340.63101 L 444.19925,336.62554 L 444.06874,333.60603 L 443.28578,331.17011 L 441.78508,329.07857 L 440.42938,328.4261 L 438.13847,326.10618 L 438.12398,325.64945 L 448.5817,325.09485 L 461.31947,324.3735" id="AR_Randolph" inkscape:label="Randolph, AR"/>
    <path style="font-size:12px;fill:#698dc5;fill-opacity:1;fill-rule:nonzero;stroke:#ffffff;stroke-width:1.13758183000000000" d="M 436.52541,325.69657 L 436.67041,331.98933 L 432.75194,337.55712 L 428.04323,337.60788 L 410.61128,337.98124 L 410.4119,326.81303 L 411.52474,326.74416 L 428.23535,325.99381 L 436.52541,325.69657" id="AR_Fulton" inkscape:label="Fulton, AR"/>
    <path style="font-size:12px;fill:#698dc5;fill-opacity:1;fill-rule:nonzero;stroke:#ffffff;stroke-width:1.13758183000000000" d="M 396.2822,327.39664 L 410.4119,326.81303 L 410.61128,337.98124 L 410.66202,341.28347 L 408.65022,342.12083 L 408.68284,344.07826 L 409.41869,344.07826 L 409.48394,347.54362 L 405.53283,351.7267 L 401.49474,351.79196 L 401.44762,347.68861 L 401.42587,344.94459 L 400.4834,342.75155 L 398.48611,338.65909 L 396.75705,336.61466 L 396.1372,336.16881 L 396.31482,332.46419 L 396.2822,327.39664" id="AR_Baxter" inkscape:label="Baxter, AR"/>
    <path style="font-size:12px;fill:#698dc5;fill-opacity:1;fill-rule:nonzero;stroke:#ffffff;stroke-width:1.13758183000000000" d="M 387.21642,327.70837 L 396.2822,327.39664 L 396.31482,332.46419 L 396.1372,336.16881 L 396.75705,336.61466 L 398.48611,338.65909 L 400.4834,342.75155 L 401.42587,344.94459 L 401.44762,347.68861 L 385.45111,347.91336 L 383.39219,345.90881 L 384.15702,327.80625 L 387.21642,327.70837" id="AR_Marion" inkscape:label="Marion, AR"/>
    <path style="font-size:12px;fill:#698dc5;fill-opacity:1;fill-rule:nonzero;stroke:#ffffff;stroke-width:1.13758183000000000" d="M 384.15702,327.80625 L 383.39219,345.90881 L 381.36589,345.92331 L 368.03365,346.0393 L 367.69291,328.29561 L 384.15702,327.80625" id="AR_Boone" inkscape:label="Boone, AR"/>
    <path style="font-size:12px;fill:#698dc5;fill-opacity:1;fill-rule:nonzero;stroke:#ffffff;stroke-width:1.13758183000000000" d="M 367.69291,328.29561 L 368.03365,346.0393 L 361.3059,346.05381 L 358.6235,346.05381 L 357.30404,344.7126 L 356.27459,343.27716 L 355.94473,342.60655 L 355.94473,340.84125 L 355.43725,338.9962 L 354.42591,337.83986 L 348.51014,337.81812 L 346.40409,328.81758 L 356.92706,328.55658 L 366.97155,328.3101 L 367.69291,328.29561" id="AR_Carroll" inkscape:label="Carroll, AR"/>
    <path style="font-size:12px;fill:#698dc5;fill-opacity:1;fill-rule:nonzero;stroke:#ffffff;stroke-width:1.13758183000000000" d="M 338.54538,328.9807 L 346.40409,328.81758 L 348.51014,337.81812 L 345.87848,341.24724 L 341.23866,341.21824 L 337.22232,342.13532 L 329.21862,342.54493 L 327.55118,345.95593 L 327.1597,348.00035 L 321.11343,347.96773 L 320.6712,345.16933 L 318.36578,329.30331 L 338.54538,328.9807" id="AR_Benton" inkscape:label="Benton, AR"/>
    <path style="font-size:12px;fill:#698dc5;fill-opacity:1;fill-rule:nonzero;stroke:#ffffff;stroke-width:1.13758183000000000" d="M 321.11343,347.96773 L 327.1597,348.00035 L 327.55118,345.95593 L 329.21862,342.54493 L 337.22232,342.13532 L 341.23866,341.21824 L 345.87848,341.24724 L 343.92106,348.06197 L 343.56219,360.21977 L 343.56219,363.63439 L 337.4688,363.58363 L 332.81085,364.15999 L 323.58196,364.07299 L 321.11343,347.96773" id="AR_Washington" inkscape:label="Washington, AR"/>
    <path style="font-size:12px;fill:#698dc5;fill-opacity:1;fill-rule:nonzero;stroke:#ffffff;stroke-width:1.13758183000000000" d="M 343.56219,363.63439 L 346.22285,363.63439 L 346.20834,364.32311 L 345.52325,365.00459 L 341.56852,368.35033 L 341.45615,373.32364 L 340.93054,376.00241 L 340.22733,378.25345 L 339.6401,378.56519 L 337.39994,378.34045 L 337.07732,378.38757 L 336.84533,378.51806 L 336.5191,378.79356 L 336.35959,379.15241 L 336.53722,379.5439 L 337.09182,380.03688 L 337.25494,380.33049 L 337.39994,380.83435 L 337.37093,381.17872 L 337.25494,381.47596 L 336.97582,381.71882 L 334.59067,382.79541 L 333.9708,382.99476 L 331.35728,383.19051 L 330.39307,382.87878 L 329.51222,381.78407 L 329.38174,381.1461 L 329.53036,380.52624 L 329.53036,380.34863 L 329.31648,379.87376 L 328.07317,378.90955 L 327.45331,378.63406 L 326.94583,378.53619 L 326.84795,378.58332 L 326.15922,381.03372 L 324.44829,369.74228 L 323.58196,364.07299 L 332.81085,364.15999 L 337.4688,363.58363 L 343.56219,363.63439" id="AR_Crawford" inkscape:label="Crawford, AR"/>
    <path style="font-size:12px;fill:#698dc5;fill-opacity:1;fill-rule:nonzero;stroke:#ffffff;stroke-width:1.13758183000000000" d="M 326.15922,381.03372 L 326.84795,378.58332 L 326.94583,378.53619 L 327.45331,378.63406 L 328.07317,378.90955 L 329.31648,379.87376 L 329.53036,380.34863 L 329.53036,380.52624 L 329.38174,381.1461 L 329.51222,381.78407 L 330.39307,382.87878 L 331.35728,383.19051 L 333.9708,382.99476 L 334.59067,382.79541 L 336.97582,381.71882 L 337.25494,381.47596 L 337.37093,381.17872 L 337.39994,380.83435 L 337.25494,380.33049 L 337.09182,380.03688 L 336.53722,379.5439 L 336.35959,379.15241 L 336.5191,378.79356 L 336.84533,378.51806 L 337.07732,378.38757 L 337.39994,378.34045 L 339.6401,378.56519 L 341.61564,389.41441 L 341.58664,392.85803 L 337.48331,392.81091 L 337.4688,394.86983 L 336.78007,394.88431 L 334.3623,395.90291 L 333.31471,396.56988 L 333.31471,396.91425 L 334.17018,396.92875 L 334.17018,401.11184 L 332.8761,401.64831 L 326.58697,403.00764 L 325.91637,402.87714 L 326.14474,381.85294 L 326.15922,381.03372" id="AR_Sebastian" inkscape:label="Sebastian, AR"/>
    <path style="font-size:12px;fill:#698dc5;fill-opacity:1;fill-rule:nonzero;stroke:#ffffff;stroke-width:1.13758183000000000" d="M 337.4688,394.86983 L 337.4688,396.94687 L 340.04607,398.26995 L 346.09234,398.31706 L 354.11418,398.26995 L 354.21567,411.17446 L 352.88896,411.16358 L 349.69183,412.87451 L 347.89029,415.04943 L 345.90023,415.12918 L 345.90023,414.44408 L 342.51824,413.93659 L 331.08179,413.91847 L 329.33099,413.005 L 325.81849,412.53015 L 325.91637,402.87714 L 326.58697,403.00764 L 332.8761,401.64831 L 334.17018,401.11184 L 334.17018,396.92875 L 333.31471,396.91425 L 333.31471,396.56988 L 334.3623,395.90291 L 336.78007,394.88431 L 337.4688,394.86983" id="AR_Scott" inkscape:label="Scott, AR"/>
    <path style="font-size:12px;fill:#698dc5;fill-opacity:1;fill-rule:nonzero;stroke:#ffffff;stroke-width:1.13758183000000000" d="M 366.29008,410.9642 L 366.23934,427.26884 L 366.27195,429.96574 L 346.02711,429.96574 L 345.90023,415.12918 L 347.89029,415.04943 L 349.69183,412.87451 L 352.88896,411.16358 L 354.21567,411.17446 L 366.29008,410.9642" id="AR_Montgomery" inkscape:label="Montgomery, AR"/>
    <path style="font-size:12px;fill:#698dc5;fill-opacity:1;fill-rule:nonzero;stroke:#ffffff;stroke-width:1.13758183000000000" d="M 378.42612,409.26415 L 382.46059,409.11915 L 382.57658,413.23699 L 385.056,415.46992 L 388.89835,417.46722 L 389.57982,418.7903 L 389.60158,421.53431 L 384.94362,421.57056 L 383.76917,424.29645 L 383.84891,427.10572 L 366.23934,427.26884 L 366.29008,410.9642 L 370.30643,409.44539 L 378.42612,409.26415" id="AR_Garland" inkscape:label="Garland, AR"/>
    <path style="font-size:12px;fill:#698dc5;fill-opacity:1;fill-rule:nonzero;stroke:#ffffff;stroke-width:1.13758183000000000" d="M 391.08777,405.01581 L 394.48426,407.48434 L 398.50423,411.35569 L 404.10826,415.23068 L 410.25604,417.11923 L 410.57864,421.24069 L 404.53238,421.37119 L 398.81597,423.51349 L 396.43082,425.35854 L 394.52051,425.56878 L 389.60158,421.53431 L 389.57982,418.7903 L 388.89835,417.46722 L 385.056,415.46992 L 382.57658,413.23699 L 382.46059,409.11915 L 378.42612,409.26415 L 378.34637,405.21156 L 382.28297,405.04843 L 387.65502,405.04843 L 390.71078,405.85315 L 391.08777,405.01581" id="AR_Saline" inkscape:label="Saline, AR"/>
    <path style="font-size:12px;fill:#698dc5;fill-opacity:1;fill-rule:nonzero;stroke:#ffffff;stroke-width:1.13758183000000000" d="M 414.3485,396.66413 L 416.26606,396.62063 L 416.55967,409.7535 L 418.60047,414.88631 L 418.84334,421.0957 L 412.03585,421.20444 L 410.57864,421.24069 L 410.25604,417.11923 L 404.10826,415.23068 L 398.50423,411.35569 L 394.48426,407.48434 L 391.08777,405.01581 L 390.49691,405.03394 L 390.4679,402.32253 L 394.41901,401.55406 L 397.2174,400.85084 L 398.35562,400.06426 L 401.36063,400.9161 L 409.10696,400.83634 L 410.29591,396.733 L 414.3485,396.66413" id="AR_Pulaski" inkscape:label="Pulaski, AR"/>
    <path style="font-size:12px;fill:#698dc5;fill-opacity:1;fill-rule:nonzero;stroke:#ffffff;stroke-width:1.13758183000000000" d="M 414.30501,394.11948 L 419.25295,394.18473 L 421.03275,394.80821 L 426.42292,395.29756 L 426.60416,400.41223 L 430.80537,400.31074 L 433.5349,414.01997 L 433.87564,417.02498 L 433.85752,417.7427 L 432.3387,420.8637 L 431.29474,420.8637 L 418.84334,421.0957 L 418.60047,414.88631 L 416.55967,409.7535 L 416.26606,396.62063 L 414.3485,396.66413 L 414.30501,394.11948" id="AR_Lonoke" inkscape:label="Lonoke, AR"/>
    <path style="font-size:12px;fill:#698dc5;fill-opacity:1;fill-rule:nonzero;stroke:#ffffff;stroke-width:1.13758183000000000" d="M 426.42292,395.29756 L 439.11719,391.93368 L 439.23319,393.15889 L 439.41806,393.67724 L 443.05742,393.51412 L 443.18429,400.06426 L 443.64465,416.48488 L 435.34733,416.68061 L 435.4887,420.76584 L 434.36499,420.8637 L 432.3387,420.8637 L 433.85752,417.7427 L 433.87564,417.02498 L 433.5349,414.01997 L 430.80537,400.31074 L 426.60416,400.41223 L 426.42292,395.29756" id="AR_Prairie" inkscape:label="Prairie, AR"/>
    <path style="font-size:12px;fill:#698dc5;fill-opacity:1;fill-rule:nonzero;stroke:#ffffff;stroke-width:1.13758183000000000" d="M 443.18429,400.06426 L 445.99718,399.93376 L 445.95006,397.94371 L 446.25817,396.50464 L 447.96185,395.52592 L 451.30761,395.43168 L 453.52964,401.68093 L 453.7435,407.90845 L 455.78431,407.8432 L 455.90031,411.99368 L 456.20842,420.21123 L 458.29633,420.16048 L 458.32897,420.89634 L 458.54646,426.43512 L 456.4839,426.51487 L 456.20842,426.53662 L 454.99771,426.07627 L 454.39599,425.65578 L 450.91611,421.89317 L 448.20109,418.00369 L 446.94689,416.40512 L 443.64465,416.48488 L 443.18429,400.06426" id="AR_Monroe" inkscape:label="Monroe, AR"/>
    <path style="font-size:12px;fill:#698dc5;fill-opacity:1;fill-rule:nonzero;stroke:#ffffff;stroke-width:1.13758183000000000" d="M 453.52964,401.68093 L 453.44989,399.59302 L 455.45444,399.47702 L 459.33305,399.51327 L 479.73377,398.49831 L 479.96214,401.84405 L 474.08262,411.20708 L 455.90031,411.99368 L 455.78431,407.8432 L 453.7435,407.90845 L 453.52964,401.68093" id="AR_Lee" inkscape:label="Lee, AR"/>
    <path style="font-size:12px;fill:#698dc5;fill-opacity:1;fill-rule:nonzero;stroke:#ffffff;stroke-width:1.13758183000000000" d="M 474.08262,411.20708 L 474.60459,416.648 L 475.0142,420.84558 L 474.73871,421.74455 L 474.70246,421.82792 L 474.61909,421.89317 L 473.29601,423.05313 L 471.63221,423.8506 L 469.6204,424.26382 L 467.61586,424.65531 L 463.95474,431.22356 L 462.21843,434.8013 L 461.66383,435.95763 L 461.79433,436.41437 L 461.81246,436.48324 L 454.64247,436.8421 L 456.4839,426.51487 L 458.54646,426.43512 L 458.32897,420.89634 L 458.29633,420.16048 L 456.20842,420.21123 L 455.90031,411.99368 L 474.08262,411.20708" id="AR_Phillips" inkscape:label="Phillips, AR"/>
    <path style="font-size:12px;fill:#698dc5;fill-opacity:1;fill-rule:nonzero;stroke:#ffffff;stroke-width:1.13758183000000000" d="M 418.84334,421.0957 L 431.29474,420.8637 L 431.57023,432.56114 L 436.14842,432.59738 L 438.16023,432.69163 L 438.54808,432.97075 L 442.14395,437.15385 L 442.65144,438.93727 L 442.3542,439.21277 L 442.14395,439.31063 L 439.97265,439.73474 L 437.07639,438.78865 L 431.11349,435.89239 L 430.23265,439.19464 L 422.56969,439.56799 L 422.62044,440.94182 L 411.85098,441.4638 L 411.70598,436.46874 L 412.32945,433.53985 L 412.03585,421.20444 L 418.84334,421.0957" id="AR_Jefferson" inkscape:label="Jefferson, AR"/>
    <path style="font-size:12px;fill:#698dc5;fill-opacity:1;fill-rule:nonzero;stroke:#ffffff;stroke-width:1.13758183000000000" d="M 412.03585,421.20444 L 412.32945,433.53985 L 411.70598,436.46874 L 411.85098,441.4638 L 407.89987,441.74654 L 404.30763,438.78865 L 401.64336,438.00206 L 394.58213,438.00206 L 394.52051,425.56878 L 396.43082,425.35854 L 398.81597,423.51349 L 404.53238,421.37119 L 410.57864,421.24069 L 412.03585,421.20444" id="AR_Grant" inkscape:label="Grant, AR"/>
    <path style="font-size:12px;fill:#698dc5;fill-opacity:1;fill-rule:nonzero;stroke:#ffffff;stroke-width:1.13758183000000000" d="M 389.60158,421.53431 L 394.52051,425.56878 L 394.58213,438.00206 L 386.57481,437.98755 L 382.65634,437.96943 L 381.10489,435.63139 L 368.33088,432.69163 L 366.27195,429.96574 L 366.23934,427.26884 L 383.84891,427.10572 L 383.76917,424.29645 L 384.94362,421.57056 L 389.60158,421.53431" id="AR_Hot_Spring" inkscape:label="Hot Spring, AR"/>
    <path style="font-size:12px;fill:#698dc5;fill-opacity:1;fill-rule:nonzero;stroke:#ffffff;stroke-width:1.13758183000000000" d="M 386.57481,437.98755 L 394.58213,438.00206 L 401.64336,438.00206 L 404.30763,438.78865 L 407.89987,441.74654 L 402.70544,442.26852 L 402.69096,446.042 L 403.39054,446.1725 L 404.77887,447.4267 L 405.67783,448.72078 L 408.29136,453.32798 L 408.45086,454.17981 L 398.83047,454.19432 L 386.82493,454.24144 L 385.95497,450.32297 L 386.57481,446.10362 L 386.57481,437.98755" id="AR_Dallas" inkscape:label="Dallas, AR"/>
    <path style="font-size:12px;fill:#698dc5;fill-opacity:1;fill-rule:nonzero;stroke:#ffffff;stroke-width:1.13758183000000000" d="M 411.85098,441.4638 L 422.62044,440.94182 L 422.30871,453.76659 L 422.48995,457.86993 L 408.7481,458.26141 L 408.45086,454.17981 L 408.29136,453.32798 L 405.67783,448.72078 L 404.77887,447.4267 L 403.39054,446.1725 L 402.69096,446.042 L 402.70544,442.26852 L 407.89987,441.74654 L 411.85098,441.4638" id="AR_Cleveland" inkscape:label="Cleveland, AR"/>
    <path style="font-size:12px;fill:#698dc5;fill-opacity:1;fill-rule:nonzero;stroke:#ffffff;stroke-width:1.13758183000000000" d="M 442.14395,439.31063 L 443.20242,442.34827 L 443.2169,443.09499 L 441.60385,444.24044 L 438.39946,444.34194 L 438.4176,451.3488 L 438.48284,453.44397 L 422.30871,453.76659 L 422.62044,440.94182 L 422.56969,439.56799 L 430.23265,439.19464 L 431.11349,435.89239 L 437.07639,438.78865 L 439.97265,439.73474 L 442.14395,439.31063" id="AR_Lincoln" inkscape:label="Lincoln, AR"/>
    <path style="font-size:12px;fill:#698dc5;fill-opacity:1;fill-rule:nonzero;stroke:#ffffff;stroke-width:1.13758183000000000" d="M 431.29474,420.8637 L 434.36499,420.8637 L 435.4887,420.76584 L 435.34733,416.68061 L 443.64465,416.48488 L 446.94689,416.40512 L 448.20109,418.00369 L 450.91611,421.89317 L 454.39599,425.65578 L 454.99771,426.07627 L 456.20842,426.53662 L 456.4839,426.51487 L 454.64247,436.8421 L 452.74305,438.13255 L 452.14132,438.70528 L 451.82595,439.21277 L 451.78246,440.27485 L 451.89484,440.97444 L 452.69954,441.77916 L 454.47935,444.52319 L 453.79063,445.44027 L 449.08557,444.04833 L 446.78377,442.64187 L 443.20242,442.34827 L 442.14395,439.31063 L 442.3542,439.21277 L 442.65144,438.93727 L 442.14395,437.15385 L 438.54808,432.97075 L 438.16023,432.69163 L 436.14842,432.59738 L 431.57023,432.56114 L 431.29474,420.8637" id="AR_Arkansas" inkscape:label="Arkansas, AR"/>
    <path style="font-size:12px;fill:#698dc5;fill-opacity:1;fill-rule:nonzero;stroke:#ffffff;stroke-width:1.13758183000000000" d="M 461.81246,436.48324 L 463.54513,437.87156 L 463.95474,438.88652 L 463.72638,440.45609 L 456.17579,444.25856 L 453.07292,457.62343 L 452.85905,458.68552 L 452.9098,458.77977 L 453.14179,459.19299 L 454.29811,460.05934 L 455.39282,460.94381 L 455.39282,460.99094 L 455.29132,461.49479 L 454.60623,462.08202 L 451.74984,463.23109 L 451.14449,465.33714 L 448.28447,465.41326 L 447.226,464.76442 L 447.01214,463.35797 L 442.99216,463.55733 L 438.48284,453.44397 L 438.4176,451.3488 L 438.39946,444.34194 L 441.60385,444.24044 L 443.2169,443.09499 L 443.20242,442.34827 L 446.78377,442.64187 L 449.08557,444.04833 L 453.79063,445.44027 L 454.47935,444.52319 L 452.69954,441.77916 L 451.89484,440.97444 L 451.78246,440.27485 L 451.82595,439.21277 L 452.14132,438.70528 L 452.74305,438.13255 L 454.64247,436.8421 L 461.81246,436.48324" id="AR_Desha" inkscape:label="Desha, AR"/>
    <path style="font-size:12px;fill:#698dc5;fill-opacity:1;fill-rule:nonzero;stroke:#ffffff;stroke-width:1.13758183000000000" d="M 422.30871,453.76659 L 438.48284,453.44397 L 442.99216,463.55733 L 443.23865,471.75677 L 422.53707,472.2425 L 422.10934,471.64079 L 421.47499,469.7631 L 421.43873,469.53473 L 421.55836,466.21799 L 421.58735,466.13461 L 422.81256,466.06936 L 422.48995,457.86993 L 422.30871,453.76659" id="AR_Drew" inkscape:label="Drew, AR"/>
    <path style="font-size:12px;fill:#698dc5;fill-opacity:1;fill-rule:nonzero;stroke:#ffffff;stroke-width:1.13758183000000000" d="M 408.7481,458.26141 L 422.48995,457.86993 L 422.81256,466.06936 L 421.58735,466.13461 L 421.55836,466.21799 L 421.43873,469.53473 L 421.47499,469.7631 L 422.10934,471.64079 L 422.53707,472.2425 L 423.74414,473.12698 L 423.22217,476.73733 L 422.09846,477.68706 L 421.32636,477.90092 L 419.61543,479.28562 L 418.17273,481.16691 L 417.25926,483.51582 L 413.82652,480.90593 L 408.73359,478.27427 L 408.6321,477.77041 L 408.73359,477.47318 L 407.63889,476.77359 L 407.4069,475.31639 L 407.57363,473.85919 L 407.89987,473.66707 L 408.063,473.7287 L 408.71547,472.07939 L 409.59631,469.45499 L 409.88992,467.99779 L 409.17583,461.44767 L 408.7481,458.26141" id="AR_Bradley" inkscape:label="Bradley, AR"/>
    <path style="font-size:12px;fill:#698dc5;fill-opacity:1;fill-rule:nonzero;stroke:#ffffff;stroke-width:1.13758183000000000" d="M 398.83047,454.19432 L 408.45086,454.17981 L 408.7481,458.26141 L 409.17583,461.44767 L 409.88992,467.99779 L 409.59631,469.45499 L 408.71547,472.07939 L 408.063,473.7287 L 407.89987,473.66707 L 407.57363,473.85919 L 407.4069,475.31639 L 407.63889,476.77359 L 408.73359,477.47318 L 407.58814,478.47002 L 405.88808,478.82888 L 405.13774,478.79625 L 403.95965,477.8828 L 404.01402,477.75229 L 403.65154,476.29872 L 400.7444,474.73279 L 400.18979,474.58417 L 394.73075,471.77127 L 392.28397,468.97651 L 391.9541,468.17541 L 391.82361,466.5116 L 393.52005,461.57816 L 393.78466,461.36429 L 396.36556,460.92207 L 396.54318,460.78069 L 397.80101,458.80151 L 398.83047,454.19432" id="AR_Calhoun" inkscape:label="Calhoun, AR"/>
    <path style="font-size:12px;fill:#698dc5;fill-opacity:1;fill-rule:nonzero;stroke:#ffffff;stroke-width:1.13758183000000000" d="M 386.82493,454.24144 L 398.83047,454.19432 L 397.80101,458.80151 L 396.54318,460.78069 L 396.36556,460.92207 L 393.78466,461.36429 L 393.52005,461.57816 L 391.82361,466.5116 L 391.9541,468.17541 L 392.28397,468.97651 L 394.73075,471.77127 L 400.18979,474.58417 L 384.19328,474.66753 L 378.73786,471.26741 L 378.73786,456.03937 L 386.82493,454.24144" id="AR_Ouachita" inkscape:label="Ouachita, AR"/>
    <path style="font-size:12px;fill:#698dc5;fill-opacity:1;fill-rule:nonzero;stroke:#ffffff;stroke-width:1.13758183000000000" d="M 368.10252,447.90156 L 370.89365,451.90702 L 376.9218,454.4698 L 377.7374,454.92654 L 378.73786,456.03937 L 378.73786,471.26741 L 369.08122,471.94889 L 364.47403,470.59682 L 364.49215,461.3498 L 364.89813,454.19432 L 364.89813,447.98493 L 368.10252,447.90156" id="AR_Nevada" inkscape:label="Nevada, AR"/>
    <path style="font-size:12px;fill:#698dc5;fill-opacity:1;fill-rule:nonzero;stroke:#ffffff;stroke-width:1.13758183000000000" d="M 350.71768,445.89701 L 364.89813,447.98493 L 364.89813,454.19432 L 364.49215,461.3498 L 364.47403,470.59682 L 355.15813,470.54606 L 351.02941,464.63391 L 345.79873,458.13091 L 350.66692,458.15991 L 350.71768,445.89701" id="AR_Hempstead" inkscape:label="Hempstead, AR"/>
    <path style="font-size:12px;fill:#698dc5;fill-opacity:1;fill-rule:nonzero;stroke:#ffffff;stroke-width:1.13758183000000000" d="M 363.57868,429.96574 L 366.27195,429.96574 L 368.33088,432.69163 L 381.10489,435.63139 L 382.65634,437.96943 L 386.57481,437.98755 L 386.57481,446.10362 L 385.95497,450.32297 L 386.82493,454.24144 L 378.73786,456.03937 L 377.7374,454.92654 L 376.9218,454.4698 L 370.89365,451.90702 L 368.10252,447.90156 L 365.84785,443.70397 L 365.2715,442.1199 L 363.60768,434.07996 L 363.57868,429.96574" id="AR_Clark" inkscape:label="Clark, AR"/>
    <path style="font-size:12px;fill:#698dc5;fill-opacity:1;fill-rule:nonzero;stroke:#ffffff;stroke-width:1.13758183000000000" d="M 346.02711,429.96574 L 363.57868,429.96574 L 363.60768,434.07996 L 365.2715,442.1199 L 365.84785,443.70397 L 368.10252,447.90156 L 364.89813,447.98493 L 350.71768,445.89701 L 350.6198,437.67582 L 346.57083,437.63956 L 346.06335,434.04733 L 346.02711,429.96574" id="AR_Pike" inkscape:label="Pike, AR"/>
    <path style="font-size:12px;fill:#698dc5;fill-opacity:1;fill-rule:nonzero;stroke:#ffffff;stroke-width:1.13758183000000000" d="M 346.02711,429.96574 L 346.06335,434.04733 L 346.57083,437.63956 L 350.6198,437.67582 L 350.71768,445.89701 L 350.66692,458.15991 L 345.79873,458.13091 L 345.73349,458.13091 L 341.42353,450.38821 L 341.26041,449.91336 L 340.50644,444.94729 L 340.22733,442.71076 L 340.11133,439.16201 L 340.25995,437.74106 L 339.83584,437.5417 L 334.32967,437.60695 L 333.7932,434.0002 L 333.77145,429.94762 L 346.02711,429.96574" id="AR_Howard" inkscape:label="Howard, AR"/>
    <path style="font-size:12px;fill:#698dc5;fill-opacity:1;fill-rule:nonzero;stroke:#ffffff;stroke-width:1.13758183000000000" d="M 325.81849,412.53015 L 329.33099,413.005 L 331.08179,413.91847 L 342.51824,413.93659 L 345.90023,414.44408 L 345.90023,415.12918 L 346.02711,429.96574 L 333.77145,429.94762 L 333.7932,434.0002 L 334.32967,437.60695 L 325.62275,437.87156 L 325.81849,412.53015" id="AR_Polk" inkscape:label="Polk, AR"/>
    <path style="font-size:12px;fill:#698dc5;fill-opacity:1;fill-rule:nonzero;stroke:#ffffff;stroke-width:1.13758183000000000" d="M 334.32967,437.60695 L 339.83584,437.5417 L 340.25995,437.74106 L 340.11133,439.16201 L 340.22733,442.71076 L 340.50644,444.94729 L 341.26041,449.91336 L 341.42353,450.38821 L 345.73349,458.13091 L 342.53274,458.08379 L 332.36863,455.07516 L 325.53938,449.58349 L 325.62275,437.87156 L 334.32967,437.60695" id="AR_Sevier" inkscape:label="Sevier, AR"/>
    <path style="font-size:12px;fill:#698dc5;fill-opacity:1;fill-rule:nonzero;stroke:#ffffff;stroke-width:1.13758183000000000" d="M 325.53938,449.58349 L 332.36863,455.07516 L 342.53274,458.08379 L 345.73349,458.13091 L 345.79873,458.13091 L 351.02941,464.63391 L 342.66323,467.52293 L 341.73164,466.75446 L 341.01392,466.46085 L 337.25494,465.70688 L 335.08002,466.02225 L 334.51092,466.09112 L 334.31518,466.26874 L 330.55618,468.17541 L 328.46465,467.03357 L 327.89554,466.66022 L 326.30786,465.64526 L 326.05048,465.30089 L 325.75325,464.61943 L 325.44513,463.81833 L 325.53938,449.58349" id="AR_Little_River" inkscape:label="Little River, AR"/>
    <path style="font-size:12px;fill:#698dc5;fill-opacity:1;fill-rule:nonzero;stroke:#ffffff;stroke-width:1.13758183000000000" d="M 351.02941,464.63391 L 355.15813,470.54606 L 354.88265,473.55108 L 357.56504,477.52394 L 357.56504,477.77041 L 356.92706,479.84384 L 354.0018,485.00564 L 353.72269,485.3645 L 353.44719,485.6255 L 352.99046,485.69437 L 350.80105,489.58022 L 352.48299,492.34237 L 352.106,492.34237 L 343.18884,492.53811 L 342.66323,467.52293 L 351.02941,464.63391" id="AR_Miller" inkscape:label="Miller, AR"/>
    <path style="font-size:12px;fill:#698dc5;fill-opacity:1;fill-rule:nonzero;stroke:#ffffff;stroke-width:1.13758183000000000" d="M 355.15813,470.54606 L 364.47403,470.59682 L 369.08122,471.94889 L 368.65712,472.489 L 364.80027,480.72468 L 364.75315,492.08138 L 363.55693,492.09588 L 352.48299,492.34237 L 350.80105,489.58022 L 352.99046,485.69437 L 353.44719,485.6255 L 353.72269,485.3645 L 354.0018,485.00564 L 356.92706,479.84384 L 357.56504,477.77041 L 357.56504,477.52394 L 354.88265,473.55108 L 355.15813,470.54606" id="AR_Lafayette" inkscape:label="Lafayette, AR"/>
    <path style="font-size:12px;fill:#698dc5;fill-opacity:1;fill-rule:nonzero;stroke:#ffffff;stroke-width:1.13758183000000000" d="M 369.08122,471.94889 L 378.73786,471.26741 L 384.19328,474.66753 L 384.33828,491.55577 L 374.58739,491.82039 L 364.75315,492.08138 L 364.80027,480.72468 L 368.65712,472.489 L 369.08122,471.94889" id="AR_Columbia" inkscape:label="Columbia, AR"/>
    <path style="font-size:12px;fill:#698dc5;fill-opacity:1;fill-rule:nonzero;stroke:#ffffff;stroke-width:1.13758183000000000" d="M 384.19328,474.66753 L 400.18979,474.58417 L 400.7444,474.73279 L 403.65154,476.29872 L 404.01402,477.75229 L 403.95965,477.8828 L 405.13774,478.79625 L 405.88808,478.82888 L 407.58814,478.47002 L 408.73359,477.47318 L 408.6321,477.77041 L 408.73359,478.27427 L 413.82652,480.90593 L 417.25926,483.51582 L 420.23165,490.67492 L 394.62925,491.36365 L 384.33828,491.55577 L 384.19328,474.66753" id="AR_Union" inkscape:label="Union, AR"/>
  </g>
</svg>