<svg width="155.79221" height="127.36594" xmlns="http://www.w3.org/2000/svg">

 <metadata id="metadata5603">image/svg+xml</metadata>
 <g>
  <title>background</title>
  <rect fill="none" id="canvas_background" height="402" width="582" y="-1" x="-1"/>
 </g>
 <g>
  <title>Layer 1</title>
  <g id="layer1">
   <path fill="#999999" fill-rule="nonzero" stroke="#ffffff" stroke-width="1.632289" stroke-miterlimit="4" id="CT_Hartford" d="m45.375379,25.740372l35.47228,-6.84636l3.31526,6.62127l13.59018,23.6715l0.245,0.44395l0.41345,1.86322l-3.5526,2.25709l-4.31057,-4.39543l-8.56756,2.3134l-5.82655,2.25084l-1.55427,4.39543l-17.9084,-1.43803l-6.17876,-12.0296l4.63215,-1.60686l0.40581,-14.03661l-9.93809,2.5635l-0.23733,-6.02731"/>
   <path fill="#999999" fill-rule="nonzero" stroke="#ffffff" stroke-width="1.632289" stroke-miterlimit="4" id="CT_Litchfield" d="m42.197949,26.328072l3.17743,-0.5877l0.23733,6.02731l9.93809,-2.5635l-0.40581,14.03661l-4.63215,1.60686l6.17876,12.0296l-7.62583,7.77796l-13.18438,7.60914l-0.23736,1.07541l0.1608,0.669l0.62782,0.51269l0.93408,0.47519l-0.13782,0.16881l-1.03363,0.02501l-3.94304,-0.86283l-5.79593,-1.63812l-0.64314,-0.92534l-1.38583,-1.86321l-3.8665,-6.62754l-0.62017,-0.58772l-2.00597,-0.33764l-6.76065,-30.66167l31.0239,-5.35832"/>
   <path fill="#999999" fill-rule="nonzero" stroke="#ffffff" stroke-width="1.632289" stroke-miterlimit="4" id="CT_Fairfield" d="m20.277569,73.508582l-2.34287,-11.16052l2.00597,0.33764l0.62017,0.58772l3.8665,6.62754l1.38583,1.86321l0.64314,0.92534l5.79593,1.63812l3.94304,0.86283l1.03363,-0.02501l0.13782,-0.16881l2.68742,0.81907l5.80359,1.55059l12.83219,7.41531l-0.24501,3.914l-0.8958,1.68815l-0.17612,0.65026l0.21438,3.83895l0.20673,0.38141l1.17908,0.60022l-4.97667,1.10042l-12.4953,7.71543l-17.14279,11.88579l-0.42109,0.65651l-0.21438,0.86907l-7.71769,-8.10935l5.37482,-4.48296l0.45937,-0.36889l2.34289,-13.01744l-1.20974,-5.68968l-2.69504,-12.90492"/>
   <path fill="#999999" fill-rule="nonzero" stroke="#ffffff" stroke-width="1.632289" stroke-miterlimit="4" id="CT_New_Haven" d="m74.599999,58.315282l2.51897,6.28364l5.24467,4.42669l2.66445,-1.07539l1.0336,0.53768l3.20805,2.95741l8.62117,8.7408l-3.79759,-0.16879l-2.4118,0.47518l-9.93805,2.45716l-6.20939,2.1321l-3.38415,0.40012l-1.59252,-1.60686l-0.58188,0.19384l-8.42209,8.0093l-1.14081,1.30049l-1.34755,2.08204l-0.09189,0.30638l0,0.08753l-1.17908,-0.60022l-0.20673,-0.38141l-0.21438,-3.83895l0.17612,-0.65026l0.8958,-1.68815l0.24501,-3.914l-12.83219,-7.41531l-5.80359,-1.55059l-2.68742,-0.81907l-0.93408,-0.47519l-0.62782,-0.51269l-0.1608,-0.669l0.23736,-1.07541l13.18438,-7.60914l7.62583,-7.77796l17.9084,1.43803"/>
   <path fill="#999999" fill-rule="nonzero" stroke="#ffffff" stroke-width="1.632289" stroke-miterlimit="4" id="CT_Middlesex" d="m94.858949,53.751042l16.66808,21.83958l-13.63612,4.59549l-8.62117,-8.7408l-3.20805,-2.95741l-1.0336,-0.53768l-2.66445,1.07539l-5.24467,-4.42669l-2.51897,-6.28364l1.55427,-4.39543l5.82655,-2.25084l8.56756,-2.3134l4.31057,4.39543"/>
   <path fill="#999999" fill-rule="nonzero" stroke="#ffffff" stroke-width="1.632289" stroke-miterlimit="4" id="CT_New_London" d="m142.749979,42.621792l1.86819,22.62738l-9.14179,2.0883l-18.60516,7.04019l-3.89712,1.24423l-0.72737,0.08126l-0.7197,-0.11253l-16.66808,-21.83958l3.5526,-2.25709l9.41741,-11.35436l4.6934,2.1946l2.51898,1.01913l15.18271,-1.24423l6.45438,-2.16332l4.97671,-0.70652l1.09484,3.38254"/>
   <path fill="#999999" fill-rule="nonzero" stroke="#ffffff" stroke-width="1.632289" stroke-miterlimit="4" id="CT_Tolland" d="m109.796659,13.373152l1.92178,5.43332l-6.81424,1.40679l-1.48534,0.3939l2.96303,9.69743l3.38414,1.57562l2.96306,3.92025l-2.09787,2.02577l-2.80226,2.31336l-9.41741,11.35436l-0.41345,-1.86322l-0.245,-0.44395l-13.59018,-23.6715l-3.31526,-6.62127l26.53724,-5.13321l2.41176,-0.38765"/>
   <path fill="#999999" fill-rule="nonzero" stroke="#ffffff" stroke-width="1.632289" stroke-miterlimit="4" id="CT_Windham" d="m131.740039,10.465802l7.77128,22.12093l2.14382,6.65252l-4.97671,0.70652l-6.45438,2.16332l-15.18271,1.24423l-2.51898,-1.01913l-4.6934,-2.1946l2.80226,-2.31336l2.09787,-2.02577l-2.96306,-3.92025l-3.38414,-1.57562l-2.96303,-9.69743l1.48534,-0.3939l6.81424,-1.40679l-1.92178,-5.43332l3.03962,-0.51269l18.4214,-3.57636l0.48236,1.1817"/>
  </g>
 </g>
</svg>