<?xml version="1.0" encoding="UTF-8" standalone="no"?>
<!-- Created with Inkscape (http://www.inkscape.org/) -->

<svg
   xmlns:dc="http://purl.org/dc/elements/1.1/"
   xmlns:cc="http://creativecommons.org/ns#"
   xmlns:rdf="http://www.w3.org/1999/02/22-rdf-syntax-ns#"
   xmlns:svg="http://www.w3.org/2000/svg"
   xmlns="http://www.w3.org/2000/svg"
   xmlns:sodipodi="http://sodipodi.sourceforge.net/DTD/sodipodi-0.dtd"
   xmlns:inkscape="http://www.inkscape.org/namespaces/inkscape"
   width="301.53107"
   height="202.59236"
   id="svg6869"
   sodipodi:version="0.32"
   inkscape:version="0.48.2 r9819"
   version="1.0"
   sodipodi:docname="IA_112th_US-House-by_county.svg"
   inkscape:output_extension="org.inkscape.output.svg.inkscape">
  <defs
     id="defs6871">
    <linearGradient
       id="linearGradient13400">
      <stop
         style="stop-color:#ffff00;stop-opacity:1;"
         offset="0"
         id="stop13402" />
      <stop
         style="stop-color:#000080;stop-opacity:1;"
         offset="1"
         id="stop13404" />
    </linearGradient>
    <linearGradient
       id="linearGradient15484">
      <stop
         id="stop15486"
         offset="0"
         style="stop-color:#ffff00;stop-opacity:1;" />
      <stop
         id="stop15488"
         offset="1"
         style="stop-color:#008000;stop-opacity:1;" />
    </linearGradient>
    <inkscape:perspective
       sodipodi:type="inkscape:persp3d"
       inkscape:vp_x="0 : 526.18109 : 1"
       inkscape:vp_y="0 : 1000 : 0"
       inkscape:vp_z="744.09448 : 526.18109 : 1"
       inkscape:persp3d-origin="372.04724 : 350.78739 : 1"
       id="perspective6877" />
  </defs>
  <sodipodi:namedview
     id="base"
     pagecolor="#ffffff"
     bordercolor="#666666"
     borderopacity="1.0"
     gridtolerance="10000"
     guidetolerance="10"
     objecttolerance="10"
     inkscape:pageopacity="0.0"
     inkscape:pageshadow="2"
     inkscape:zoom="10.922786"
     inkscape:cx="263.35312"
     inkscape:cy="103.21864"
     inkscape:document-units="px"
     inkscape:current-layer="layer1"
     showgrid="false"
     showguides="true"
     inkscape:guide-bbox="true"
     inkscape:window-width="1024"
     inkscape:window-height="721"
     inkscape:window-x="147"
     inkscape:window-y="17"
     inkscape:window-maximized="0" />
  <metadata
     id="metadata6874">
    <rdf:RDF>
      <cc:Work
         rdf:about="">
        <dc:format>image/svg+xml</dc:format>
        <dc:type
           rdf:resource="http://purl.org/dc/dcmitype/StillImage" />
      </cc:Work>
    </rdf:RDF>
  </metadata>
  <g
     inkscape:label="Layer 1"
     inkscape:groupmode="layer"
     id="layer1"
     transform="translate(-244.51122,-441.7815)">
    <g
       id="CD4"
       inkscape:label="#IA_CD4">
      <path
         inkscape:label="Audubon, IA"
         id="IA_Audubon"
         d="M 318.36275,548.30316 L 333.77041,548.66944 L 333.56416,561.67612 L 335.44928,564.34634 L 335.33996,570.24447 L 320.2051,569.90078 L 320.32657,564.05866 L 318.0057,564.00317 L 318.36275,548.30316"
         style="font-size:12px;fill: #999999;fill-opacity:1;fill-rule:nonzero;stroke:#ffffff;stroke-width:1.31847560000000000" />
      <path
         inkscape:label="Boone, IA"
         id="IA_Boone"
         d="M 380.28488,528.41958 L 380.14569,549.20758 L 374.92222,549.16613 L 359.50256,549.03126 L 359.73155,528.19048 L 370.00664,528.28179 L 380.28488,528.41958"
         style="font-size:12px;fill: #999999;fill-opacity:1;fill-rule:nonzero;stroke:#ffffff;stroke-width:1.31847560000000000" />
      <path
         inkscape:label="Buena Vista, IA"
         id="IA_Buena_Vista"
         d="M 327.57182,485.59833 L 327.11119,506.58007 L 306.35962,506.02479 L 306.88258,485.12383 L 327.57182,485.59833"
         style="font-size:12px;fill: #999999;fill-opacity:1;fill-rule:nonzero;stroke:#ffffff;stroke-width:1.31847560000000000" />
      <path
         inkscape:label="Butler, IA"
         id="IA_Butler"
         d="m 409.99185,486.57684 20.54174,0.0108 0.0583,15.90334 0.0797,5.20413 -20.76869,-0.0181 0.0889,-21.10023"
         style="font-size:12px;fill: #999999;fill-opacity:1;fill-rule:nonzero;stroke:#ffffff;stroke-width:1.3184756"
         inkscape:connector-curvature="0" />
      <path
         inkscape:label="Carroll, IA"
         id="IA_Carroll"
         d="M 329.15385,527.71121 L 339.28184,527.90906 L 338.90917,548.7499 L 333.77041,548.66944 L 318.36275,548.30316 L 318.90275,527.44913 L 329.15385,527.71121"
         style="font-size:12px;fill: #999999;fill-opacity:1;fill-rule:nonzero;stroke:#ffffff;stroke-width:1.31847560000000000" />
      <path
         inkscape:label="Crawford, IA"
         id="IA_Crawford"
         d="M 318.90275,527.44913 L 318.36275,548.30316 L 297.80047,547.77247 L 292.68157,547.65094 L 293.34884,526.7314 L 308.65165,527.18706 L 318.90275,527.44913"
         style="font-size:12px;fill: #999999;fill-opacity:1;fill-rule:nonzero;stroke:#ffffff;stroke-width:1.31847560000000000" />
      <path
         inkscape:label="Calhoun, IA"
         id="IA_Calhoun"
         d="M 327.11119,506.58007 L 347.80579,507.03154 L 347.70679,512.16972 L 349.7081,512.21499 L 349.47527,528.0905 L 339.28184,527.90906 L 329.15385,527.71121 L 329.53535,511.82654 L 326.98815,511.74529 L 327.11119,506.58007"
         style="font-size:12px;fill: #999999;fill-opacity:1;fill-rule:nonzero;stroke:#ffffff;stroke-width:1.31847560000000000" />
      <path
         inkscape:label="Cerro Gordo, IA"
         id="IA_Cerro_Gordo"
         d="M 389.49585,465.65451 L 410.0502,465.70743 L 410.05173,468.27583 L 409.99185,486.57684 L 389.33218,486.48344 L 389.49585,465.65451"
         style="font-size:12px;fill: #999999;fill-opacity:1;fill-rule:nonzero;stroke:#ffffff;stroke-width:1.31847560000000000" />
      <path
         inkscape:label="Chickasaw, IA"
         id="IA_Chickasaw"
         d="M 451.03567,468.07641 L 451.07358,475.89851 L 451.15897,486.44815 L 430.53359,486.58766 L 430.44674,468.23562 L 451.03567,468.07641"
         style="font-size:12px;fill: #999999;fill-opacity:1;fill-rule:nonzero;stroke:#ffffff;stroke-width:1.31847560000000000" />
      <path
         inkscape:label="Cherokee, IA"
         id="IA_Cherokee"
         d="M 306.88258,485.12383 L 306.35962,506.02479 L 290.85126,505.61822 L 285.64916,505.48936 L 286.31612,484.57909 L 306.88258,485.12383"
         style="font-size:12px;fill: #999999;fill-opacity:1;fill-rule:nonzero;stroke:#ffffff;stroke-width:1.31847560000000000" />
      <path
         inkscape:label="Clay, IA"
         id="IA_Clay"
         d="M 307.41397,464.39469 L 328.00147,464.86131 L 327.57182,485.59833 L 306.88258,485.12383 L 307.41397,464.39469"
         style="font-size:12px;fill: #999999;fill-opacity:1;fill-rule:nonzero;stroke:#ffffff;stroke-width:1.31847560000000000" />
      <path
         inkscape:label="Dickinson, IA"
         id="IA_Dickinson"
         d="M 307.80397,449.69712 L 328.2431,450.1636 L 328.00147,464.86131 L 307.41397,464.39469 L 307.80397,449.69712"
         style="font-size:12px;fill: #999999;fill-opacity:1;fill-rule:nonzero;stroke:#ffffff;stroke-width:1.31847560000000000" />
      <path
         inkscape:label="Emmet, IA"
         id="IA_Emmet"
         d="M 348.66728,450.51839 L 348.42473,465.24385 L 328.00147,464.86131 L 328.2431,450.1636 L 330.87501,450.20586 L 348.66728,450.51839"
         style="font-size:12px;fill: #999999;fill-opacity:1;fill-rule:nonzero;stroke:#ffffff;stroke-width:1.31847560000000000" />
      <path
         inkscape:label="Floyd, IA"
         id="IA_Floyd"
         d="M 410.05173,468.27583 L 430.44674,468.23562 L 430.53359,486.58766 L 409.99185,486.57684 L 410.05173,468.27583"
         style="font-size:12px;fill: #999999;fill-opacity:1;fill-rule:nonzero;stroke:#ffffff;stroke-width:1.31847560000000000" />
      <path
         inkscape:label="Franklin, IA"
         id="IA_Franklin"
         d="M 389.33218,486.48344 L 409.99185,486.57684 L 409.90294,507.67707 L 389.17902,507.56309 L 389.33218,486.48344"
         style="font-size:12px;fill: #999999;fill-opacity:1;fill-rule:nonzero;stroke:#ffffff;stroke-width:1.31847560000000000" />
      <path
         inkscape:label="Greene, IA"
         id="IA_Greene"
         d="M 349.47527,528.0905 L 359.73155,528.19048 L 359.50256,549.03126 L 354.34021,548.96396 L 338.90917,548.7499 L 339.28184,527.90906 L 349.47527,528.0905"
         style="font-size:12px;fill: #999999;fill-opacity:1;fill-rule:nonzero;stroke:#ffffff;stroke-width:1.31847560000000000" />
      <path
         sodipodi:nodetypes="ccccccc"
         inkscape:label="Grundy, IA"
         id="IA_Grundy"
         d="M 430.67163,507.69513 L 431.59976,523.21822 L 421.31149,523.29582 L 421.3157,528.49513 L 411.01765,528.54217 L 409.90294,507.67707 L 430.67163,507.69513"
         style="font-size:12px;fill: #999999;fill-opacity:1;fill-rule:nonzero;stroke:#ffffff;stroke-width:1.31847560000000000" />
      <path
         inkscape:label="Hardin, IA"
         id="IA_Hardin"
         d="M 409.90294,507.67707 L 411.01765,528.54217 L 400.85969,528.55659 L 390.66246,528.49558 L 389.17902,507.56309 L 409.90294,507.67707"
         style="font-size:12px;fill: #999999;fill-opacity:1;fill-rule:nonzero;stroke:#ffffff;stroke-width:1.31847560000000000" />
      <path
         inkscape:label="Harrison, IA"
         id="IA_Harrison"
         d="M 297.80047,547.77247 L 297.31762,563.49166 L 299.99062,563.55373 L 299.82926,569.33896 L 278.33084,568.65324 L 272.4432,557.89534 L 272.00283,546.84761 L 292.68157,547.65094 L 297.80047,547.77247"
         style="font-size:12px;fill: #999999;fill-opacity:1;fill-rule:nonzero;stroke:#ffffff;stroke-width:1.31847560000000000" />
      <path
         inkscape:label="Hamilton, IA"
         id="IA_Hamilton"
         d="M 389.17902,507.56309 L 390.66246,528.49558 L 380.28488,528.41958 L 370.00664,528.28179 L 370.15588,512.55661 L 368.40002,512.51916 L 368.46257,507.36127 L 389.17902,507.56309"
         style="font-size:12px;fill: #999999;fill-opacity:1;fill-rule:nonzero;stroke:#ffffff;stroke-width:1.31847560000000000" />
      <path
         inkscape:label="Hancock, IA"
         id="IA_Hancock"
         d="M 389.49585,465.65451 L 389.33218,486.48344 L 368.68714,486.36735 L 368.95867,465.50012 L 389.49585,465.65451"
         style="font-size:12px;fill: #999999;fill-opacity:1;fill-rule:nonzero;stroke:#ffffff;stroke-width:1.31847560000000000" />
      <path
         inkscape:label="Humboldt, IA"
         id="IA_Humboldt"
         d="M 348.11747,486.06822 L 368.68714,486.36735 L 368.52193,502.15693 L 347.86367,501.87352 L 348.11747,486.06822"
         style="font-size:12px;fill: #999999;fill-opacity:1;fill-rule:nonzero;stroke:#ffffff;stroke-width:1.31847560000000000" />
      <path
         inkscape:label="Ida, IA"
         id="IA_Ida"
         d="M 306.35962,506.02479 L 306.23483,511.24558 L 309.09308,511.31357 L 308.65165,527.18706 L 293.34884,526.7314 L 293.85346,510.91093 L 292.41775,510.86513 L 290.73123,509.96293 L 290.85126,505.61822 L 306.35962,506.02479"
         style="font-size:12px;fill: #999999;fill-opacity:1;fill-rule:nonzero;stroke:#ffffff;stroke-width:1.31847560000000000" />
      <path
         inkscape:label="Kossuth, IA"
         id="IA_Kossuth"
         d="M 369.09261,450.8361 L 368.95867,465.50012 L 368.68714,486.36735 L 348.11747,486.06822 L 348.42473,465.24385 L 348.66728,450.51839 L 357.12859,450.64455 L 369.09261,450.8361"
         style="font-size:12px;fill: #999999;fill-opacity:1;fill-rule:nonzero;stroke:#ffffff;stroke-width:1.31847560000000000" />
      <path
         inkscape:label="Lyon, IA"
         id="IA_Lyon"
         d="M 255.43397,448.00814 L 261.7312,448.25072 L 279.03175,448.86283 L 287.32102,449.15042 L 286.83446,463.67801 L 255.71958,462.45375 L 255.43397,448.00814"
         style="font-size:12px;fill: #999999;fill-opacity:1;fill-rule:nonzero;stroke:#ffffff;stroke-width:1.31847560000000000" />
      <path
         inkscape:label="Monona, IA"
         id="IA_Monona"
         d="M 293.34884,526.7314 L 292.68157,547.65094 L 272.00283,546.84761 L 266.48259,535.76305 L 263.15069,525.54564 L 293.34884,526.7314"
         style="font-size:12px;fill: #999999;fill-opacity:1;fill-rule:nonzero;stroke:#ffffff;stroke-width:1.31847560000000000" />
      <path
         inkscape:label="O'Brien, IA"
         id="IA_OBrien"
         d="M 286.83446,463.67801 L 307.41397,464.39469 L 306.88258,485.12383 L 286.31612,484.57909 L 286.83446,463.67801"
         style="font-size:12px;fill: #999999;fill-opacity:1;fill-rule:nonzero;stroke:#ffffff;stroke-width:1.31847560000000000" />
      <rect
         inkscape:label="Osceola, IA"
         transform="matrix(0.9994917,3.1880604e-2,-3.1880604e-2,0.9994917,0,0)"
         id="rect6298"
         y="439.65543"
         x="301.47086"
         height="14.702546"
         width="20.591904"
         style="fill: #999999;fill-opacity:1;stroke:#ffffff;stroke-width:1.31847548000000000" />
      <path
         inkscape:label="Palo Alto, IA"
         id="IA_Palo_Alto"
         d="M 348.42473,465.24385 L 348.11747,486.06822 L 327.57182,485.59833 L 328.00147,464.86131 L 348.42473,465.24385"
         style="font-size:12px;fill: #999999;fill-opacity:1;fill-rule:nonzero;stroke:#ffffff;stroke-width:1.31847560000000000" />
      <path
         inkscape:label="Plymouth, IA"
         id="IA_Plymouth"
         d="M 286.31612,484.57909 L 285.64916,505.48936 L 258.49335,504.55827 L 257.04255,500.33496 L 255.97041,498.48345 L 254.57278,497.09909 L 253.45678,496.18727 L 255.46296,488.23099 L 257.36741,483.60937 L 286.31612,484.57909"
         style="font-size:12px;fill: #999999;fill-opacity:1;fill-rule:nonzero;stroke:#ffffff;stroke-width:1.31847560000000000" />
      <path
         inkscape:label="Pocahontas, IA"
         id="IA_Pocahontas"
         d="M 327.57182,485.59833 L 348.11747,486.06822 L 347.86367,501.87352 L 347.80579,507.03154 L 327.11119,506.58007 L 327.57182,485.59833"
         style="font-size:12px;fill: #999999;fill-opacity:1;fill-rule:nonzero;stroke:#ffffff;stroke-width:1.31847560000000000" />
      <path
         inkscape:label="Sac, IA"
         id="IA_Sac"
         d="M 306.35962,506.02479 L 327.11119,506.58007 L 326.98815,511.74529 L 329.53535,511.82654 L 329.15385,527.71121 L 318.90275,527.44913 L 308.65165,527.18706 L 309.09308,511.31357 L 306.23483,511.24558 L 306.35962,506.02479"
         style="font-size:12px;fill: #999999;fill-opacity:1;fill-rule:nonzero;stroke:#ffffff;stroke-width:1.31847560000000000" />
      <path
         inkscape:label="Shelby, IA"
         id="IA_Shelby"
         d="M 297.80047,547.77247 L 318.36275,548.30316 L 318.0057,564.00317 L 320.32657,564.05866 L 320.2051,569.90078 L 315.10981,569.76607 L 299.82926,569.33896 L 299.99062,563.55373 L 297.31762,563.49166 L 297.80047,547.77247"
         style="font-size:12px;fill: #999999;fill-opacity:1;fill-rule:nonzero;stroke:#ffffff;stroke-width:1.31847560000000000" />
      <path
         inkscape:label="Sioux, IA"
         id="IA_Sioux"
         d="M 255.71958,462.45375 L 286.83446,463.67801 L 286.31612,484.57909 L 257.36741,483.60937 L 260.72464,473.26693 L 261.47334,471.4503 L 261.61153,471.04212 L 260.13137,464.97737 L 259.72539,464.76971 L 256.61362,464.65655 L 255.71958,462.45375"
         style="font-size:12px;fill: #999999;fill-opacity:1;fill-rule:nonzero;stroke:#ffffff;stroke-width:1.31847560000000000" />
      <path
         inkscape:label="Story, IA"
         id="IA_Story"
         d="M 400.85969,528.55659 L 400.79865,549.36567 L 395.66333,549.3224 L 380.14569,549.20758 L 380.28488,528.41958 L 390.66246,528.49558 L 400.85969,528.55659"
         style="font-size:12px;fill: #999999;fill-opacity:1;fill-rule:nonzero;stroke:#ffffff;stroke-width:1.31847560000000000" />
      <path
         inkscape:label="Webster, IA"
         id="IA_Webster"
         d="M 368.52193,502.15693 L 368.40002,512.51916 L 370.15588,512.55661 L 370.00664,528.28179 L 359.73155,528.19048 L 349.47527,528.0905 L 349.7081,512.21499 L 347.70679,512.16972 L 347.80579,507.03154 L 347.86367,501.87352 L 368.52193,502.15693"
         style="font-size:12px;fill: #999999;fill-opacity:1;fill-rule:nonzero;stroke:#ffffff;stroke-width:1.31847560000000000" />
      <path
         inkscape:label="Wright, IA"
         id="IA_Wright"
         d="M 368.68714,486.36735 L 389.33218,486.48344 L 389.17902,507.56309 L 368.46257,507.36127 L 368.52193,502.15693 L 368.68714,486.36735"
         style="font-size:12px;fill: #999999;fill-opacity:1;fill-rule:nonzero;stroke:#ffffff;stroke-width:1.31847560000000000" />
      <path
         inkscape:label="Winnebago, IA"
         id="IA_Winnebago"
         d="M 389.58753,451.00767 L 389.49585,465.65451 L 368.95867,465.50012 L 369.09261,450.8361 L 383.02431,450.96521 L 389.58753,451.00767"
         style="font-size:12px;fill: #999999;fill-opacity:1;fill-rule:nonzero;stroke:#ffffff;stroke-width:1.31847560000000000" />
      <path
         inkscape:label="Woodbury, IA"
         id="IA_Woodbury"
         d="M 285.64916,505.48936 L 290.85126,505.61822 L 290.73123,509.96293 L 292.41775,510.86513 L 293.85346,510.91093 L 293.34884,526.7314 L 263.15069,525.54564 L 263.81506,521.8673 L 262.55651,519.31908 L 262.25707,512.42974 L 262.5938,511.6106 L 262.60466,510.68838 L 262.44143,509.99242 L 261.99883,509.33391 L 261.42252,509.08836 L 259.92538,508.93397 L 258.49335,504.55827 L 285.64916,505.48936"
         style="font-size:12px;fill: #999999;fill-opacity:1;fill-rule:nonzero;stroke:#ffffff;stroke-width:1.31847560000000000" />
    </g>
    <g
       id="CD3"
       inkscape:label="#IA_CD3">
      <path
         inkscape:label="Adair, IA"
         id="IA_Adair"
         d="M 355.78249,570.60443 L 355.49795,591.44345 L 345.24418,591.26473 L 334.97262,591.06228 L 335.33996,570.24447 L 355.78249,570.60443"
         style="font-size:12px;fill: #999999;fill-opacity:1;fill-rule:nonzero;stroke:#ffffff;stroke-width:1.31847560000000000" />
      <path
         inkscape:label="Adams, IA"
         id="IA_Adams"
         d="M 345.24418,591.26473 L 344.99898,606.80142 L 324.42956,606.34931 L 324.79893,590.8444 L 334.97262,591.06228 L 345.24418,591.26473"
         style="font-size:12px;fill: #999999;fill-opacity:1;fill-rule:nonzero;stroke:#ffffff;stroke-width:1.31847560000000000" />
      <path
         inkscape:label="Cass, IA"
         id="IA_Cass"
         d="M 335.33996,570.24447 L 334.97262,591.06228 L 324.79893,590.8444 L 314.58979,590.5744 L 315.10981,569.76607 L 320.2051,569.90078 L 335.33996,570.24447"
         style="font-size:12px;fill: #999999;fill-opacity:1;fill-rule:nonzero;stroke:#ffffff;stroke-width:1.31847560000000000" />
      <path
         inkscape:label="Dallas, IA"
         id="IA_Dallas"
         d="M 374.92222,549.16613 L 374.87663,562.36802 L 375.89558,565.0152 L 375.87477,570.31813 L 355.78249,570.60443 L 355.86718,564.75187 L 354.13508,564.69662 L 354.34021,548.96396 L 359.50256,549.03126 L 374.92222,549.16613"
         style="font-size:12px;fill: #999999;fill-opacity:1;fill-rule:nonzero;stroke:#ffffff;stroke-width:1.31847560000000000" />
      <path
         inkscape:label="Fremont, IA"
         id="IA_Fremont"
         d="M 284.28803,605.2822 L 303.94587,605.82576 L 303.75235,613.92793 L 304.06117,620.66928 L 303.95986,625.15368 L 286.30666,624.40516 L 282.65842,612.33254 L 284.28803,605.2822"
         style="font-size:12px;fill: #999999;fill-opacity:1;fill-rule:nonzero;stroke:#ffffff;stroke-width:1.31847560000000000" />
      <path
         inkscape:label="Guthrie, IA"
         id="IA_Guthrie"
         d="M 338.90917,548.7499 L 354.34021,548.96396 L 354.13508,564.69662 L 355.86718,564.75187 L 355.78249,570.60443 L 335.33996,570.24447 L 335.44928,564.34634 L 333.56416,561.67612 L 333.77041,548.66944 L 338.90917,548.7499"
         style="font-size:12px;fill: #999999;fill-opacity:1;fill-rule:nonzero;stroke:#ffffff;stroke-width:1.31847560000000000" />
      <path
         inkscape:label="Madison, IA"
         id="IA_Madison"
         d="M 375.87477,570.31813 L 375.74538,591.37998 L 365.66894,591.601 L 355.49795,591.44345 L 355.78249,570.60443 L 375.87477,570.31813"
         style="font-size:12px;fill: #999999;fill-opacity:1;fill-rule:nonzero;stroke:#ffffff;stroke-width:1.31847560000000000" />
      <path
         inkscape:label="Mills, IA"
         id="IA_Mills"
         d="M 304.42147,590.33351 L 303.94587,605.82576 L 284.28803,605.2822 L 282.5795,596.49347 L 283.40322,589.70946 L 304.42147,590.33351"
         style="font-size:12px;fill: #999999;fill-opacity:1;fill-rule:nonzero;stroke:#ffffff;stroke-width:1.31847560000000000" />
      <path
         inkscape:label="Montgomery, IA"
         id="IA_Montgomery"
         d="M 314.58979,590.5744 L 324.79893,590.8444 L 324.42956,606.34931 L 303.94587,605.82576 L 304.42147,590.33351 L 314.58979,590.5744"
         style="font-size:12px;fill: #999999;fill-opacity:1;fill-rule:nonzero;stroke:#ffffff;stroke-width:1.31847560000000000" />
      <path
         inkscape:label="Page, IA"
         id="IA_Page"
         d="M 324.42956,606.34931 L 324.22686,616.77382 L 324.91227,616.79569 L 324.66162,625.96234 L 311.68278,625.46492 L 303.95986,625.15368 L 304.06117,620.66928 L 303.75235,613.92793 L 303.94587,605.82576 L 324.42956,606.34931"
         style="font-size:12px;fill: #999999;fill-opacity:1;fill-rule:nonzero;stroke:#ffffff;stroke-width:1.31847560000000000" />
      <path
         inkscape:label="Polk, IA"
         id="IA_Polk"
         d="M 395.66333,549.3224 L 396.42297,570.70929 L 396.42943,571.66915 L 375.87477,570.31813 L 375.89558,565.0152 L 374.87663,562.36802 L 374.92222,549.16613 L 380.14569,549.20758 L 395.66333,549.3224"
         style="font-size:12px;fill: #999999;fill-opacity:1;fill-rule:nonzero;stroke:#ffffff;stroke-width:1.31847560000000000" />
      <path
         inkscape:label="Pottawattamie, IA"
         id="IA_Pottawattamie"
         d="M 299.82926,569.33896 L 315.10981,569.76607 L 314.58979,590.5744 L 304.42147,590.33351 L 283.40322,589.70946 L 280.33243,587.72931 L 280.05303,575.56014 L 278.33084,568.65324 L 299.82926,569.33896"
         style="font-size:12px;fill: #999999;fill-opacity:1;fill-rule:nonzero;stroke:#ffffff;stroke-width:1.31847560000000000" />
      <path
         inkscape:label="Ringgold, IA"
         id="IA_Ringgold"
         d="M 344.99898,606.80142 L 365.48113,607.22758 L 365.21786,626.67184 L 355.44075,626.66596 L 344.66024,626.57708 L 344.99898,606.80142"
         style="font-size:12px;fill: #999999;fill-opacity:1;fill-rule:nonzero;stroke:#ffffff;stroke-width:1.31847560000000000" />
      <path
         inkscape:label="Taylor, IA"
         id="IA_Taylor"
         d="M 344.99898,606.80142 L 344.66024,626.57708 L 337.41874,626.43417 L 324.66162,625.96234 L 324.91227,616.79569 L 324.22686,616.77382 L 324.42956,606.34931 L 344.99898,606.80142"
         style="font-size:12px;fill: #999999;fill-opacity:1;fill-rule:nonzero;stroke:#ffffff;stroke-width:1.31847560000000000" />
      <path
         inkscape:label="Union, IA"
         id="IA_Union"
         d="M 355.49795,591.44345 L 365.66894,591.601 L 365.48113,607.22758 L 344.99898,606.80142 L 345.24418,591.26473 L 355.49795,591.44345"
         style="font-size:12px;fill: #999999;fill-opacity:1;fill-rule:nonzero;stroke:#ffffff;stroke-width:1.31847560000000000" />
      <path
         inkscape:label="Warren, IA"
         id="IA_Warren"
         d="M 396.42943,571.66915 L 396.37865,591.57452 L 386.10774,591.49724 L 375.74538,591.37998 L 375.87477,570.31813 L 396.42943,571.66915"
         style="font-size:12px;fill: #999999;fill-opacity:1;fill-rule:nonzero;stroke:#ffffff;stroke-width:1.31847560000000000" />
    </g>
    <g
       id="CD2"
       inkscape:label="#IA_CD2">
      <path
         inkscape:label="Appanoose, IA"
         id="IA_Appanoose"
         d="M 427.24777,607.33407 L 427.38368,625.89166 L 423.93197,625.97166 L 406.66088,626.32476 L 406.65749,607.39124 L 427.24777,607.33407"
         style="font-size:12px;fill: #999999;fill-opacity:1;fill-rule:nonzero;stroke:#ffffff;stroke-width:1.31847560000000000" />
      <path
         inkscape:label="Cedar, IA"
         id="IA_Cedar"
         d="M 504.04776,543.38233 L 504.2786,553.87632 L 504.44046,564.35421 L 483.70742,564.67107 L 483.37478,543.70577 L 504.04776,543.38233"
         style="font-size:12px;fill: #999999;fill-opacity:1;fill-rule:nonzero;stroke:#ffffff;stroke-width:1.31847560000000000" />
      <path
         inkscape:label="Clarke, IA"
         id="IA_Clarke"
         d="M 386.10774,591.49724 L 386.03831,607.33623 L 365.48113,607.22758 L 365.66894,591.601 L 375.74538,591.37998 L 386.10774,591.49724"
         style="font-size:12px;fill: #999999;fill-opacity:1;fill-rule:nonzero;stroke:#ffffff;stroke-width:1.31847560000000000" />
      <path
         inkscape:label="Clinton, IA"
         id="IA_Clinton"
         d="M 503.94693,538.11261 L 536.81437,537.29731 L 537.09673,543.56029 L 533.36624,552.3795 L 530.12351,555.79017 L 524.13179,553.81882 L 509.25192,553.76608 L 504.2786,553.87632 L 504.04776,543.38233 L 503.94693,538.11261"
         style="font-size:12px;fill: #999999;fill-opacity:1;fill-rule:nonzero;stroke:#ffffff;stroke-width:1.31847560000000000" />
      <path
         inkscape:label="Davis, IA"
         id="IA_Davis"
         d="M 447.91541,607.17738 L 448.02753,625.17325 L 440.33292,625.4285 L 427.38368,625.89166 L 427.24777,607.33407 L 447.91541,607.17738"
         style="font-size:12px;fill: #999999;fill-opacity:1;fill-rule:nonzero;stroke:#ffffff;stroke-width:1.31847560000000000" />
      <path
         inkscape:label="Decatur, IA"
         id="IA_Decatur"
         d="M 365.48113,607.22758 L 386.03831,607.33623 L 385.91016,626.46955 L 376.10678,626.5602 L 365.21786,626.67184 L 365.48113,607.22758"
         style="font-size:12px;fill: #999999;fill-opacity:1;fill-rule:nonzero;stroke:#ffffff;stroke-width:1.31847560000000000" />
      <path
         inkscape:label="Des Moines, IA"
         id="IA_Des_Moines"
         d="M 502.91384,595.93693 L 502.9508,596.08649 L 503.10095,596.61049 L 503.27648,598.2294 L 502.94075,603.08648 L 502.50442,604.84818 L 502.24238,605.21533 L 500.92689,605.90585 L 500.43019,606.36288 L 496.78416,611.22566 L 496.59277,611.99374 L 496.06679,618.74553 L 482.57385,611.98238 L 484.03658,596.21102 L 502.91384,595.93693"
         style="font-size:12px;fill: #999999;fill-opacity:1;fill-rule:nonzero;stroke:#ffffff;stroke-width:1.31847560000000000" />
      <path
         inkscape:label="Henry, IA"
         id="IA_Henry"
         d="M 478.79302,590.98588 L 484.03658,596.21102 L 482.57385,611.98238 L 468.65602,612.14575 L 468.6108,606.87783 L 468.50607,591.12138 L 478.79302,590.98588"
         style="font-size:12px;fill: #999999;fill-opacity:1;fill-rule:nonzero;stroke:#ffffff;stroke-width:1.31847560000000000" />
      <path
         inkscape:label="Jasper, IA"
         id="IA_Jasper"
         d="M 400.79865,549.36567 L 421.41856,549.39749 L 421.89474,570.65944 L 416.79424,570.68685 L 396.42297,570.70929 L 395.66333,549.3224 L 400.79865,549.36567"
         style="font-size:12px;fill: #999999;fill-opacity:1;fill-rule:nonzero;stroke:#ffffff;stroke-width:1.31847560000000000" />
      <path
         inkscape:label="Jefferson, IA"
         id="IA_Jefferson"
         d="M 468.50607,591.12138 L 468.6108,606.87783 L 447.91541,607.17738 L 447.75255,591.35415 L 458.22131,591.18736 L 468.50607,591.12138"
         style="font-size:12px;fill: #999999;fill-opacity:1;fill-rule:nonzero;stroke:#ffffff;stroke-width:1.31847560000000000" />
      <path
         inkscape:label="Johnson, IA"
         id="IA_Johnson"
         d="M 483.45315,548.95158 L 483.70742,564.67107 L 483.78863,575.20667 L 478.64587,575.25127 L 477.6285,571.10203 L 476.93,570.03666 L 463.17453,570.19595 L 462.82602,549.14668 L 483.45315,548.95158"
         style="font-size:12px;fill: #999999;fill-opacity:1;fill-rule:nonzero;stroke:#ffffff;stroke-width:1.31847560000000000" />
      <path
         inkscape:label="Keokuk, IA"
         id="IA_Keokuk"
         d="M 442.33933,570.51884 L 457.99254,570.30879 L 458.22131,591.18736 L 447.75255,591.35415 L 437.44764,591.47051 L 437.23366,570.56458 L 442.33933,570.51884"
         style="font-size:12px;fill: #999999;fill-opacity:1;fill-rule:nonzero;stroke:#ffffff;stroke-width:1.31847560000000000" />
      <path
         inkscape:label="Lee, IA"
         id="IA_Lee"
         d="M 468.65602,612.14575 L 482.57385,611.98238 L 496.06679,618.74553 L 492.81412,622.32277 L 491.35408,622.31328 L 490.16102,622.36332 L 489.80384,622.37048 L 489.78531,622.36989 L 487.39691,623.12354 L 487.33075,623.16316 L 487.05725,623.30741 L 485.9067,623.91515 L 485.50042,624.1525 L 485.3566,624.3009 L 485.1847,624.45771 L 485.01191,624.64224 L 483.02001,627.4994 L 482.93639,627.94177 L 483.06861,628.44671 L 483.97636,628.91141 L 484.69193,630.02372 L 484.91882,630.7588 L 484.93665,631.36204 L 484.64488,636.73049 L 484.62519,636.76694 L 484.50196,637.28689 L 484.01225,637.66995 L 483.94622,637.70496 L 482.55057,638.14723 L 479.598,637.83978 L 477.76166,636.25597 L 473.3922,630.51631 L 473.23875,630.09417 L 473.42566,628.8855 L 473.3317,628.48845 L 469.84696,625.67912 L 468.92558,625.06097 L 468.65602,612.14575"
         style="font-size:12px;fill: #999999;fill-opacity:1;fill-rule:nonzero;stroke:#ffffff;stroke-width:1.31847560000000000" />
      <path
         inkscape:label="Louisa, IA"
         id="IA_Louisa"
         d="M 478.64587,575.25127 L 483.78863,575.20667 L 483.84849,580.45189 L 496.76258,580.36312 L 496.76198,580.38163 L 495.32574,585.44007 L 495.35623,585.9371 L 495.37342,585.97936 L 498.28168,589.71139 L 499.68554,590.46548 L 500.28562,590.40117 L 500.64154,590.5794 L 501.00875,590.98519 L 503.00146,594.49794 L 502.91384,595.93693 L 484.03658,596.21102 L 478.79302,590.98588 L 478.64587,575.25127"
         style="font-size:12px;fill: #999999;fill-opacity:1;fill-rule:nonzero;stroke:#ffffff;stroke-width:1.31847560000000000" />
      <path
         inkscape:label="Lucas, IA"
         id="IA_Lucas"
         d="M 396.37865,591.57452 L 406.6231,591.6092 L 406.65749,607.39124 L 386.03831,607.33623 L 386.10774,591.49724 L 396.37865,591.57452"
         style="font-size:12px;fill: #999999;fill-opacity:1;fill-rule:nonzero;stroke:#ffffff;stroke-width:1.31847560000000000" />
      <path
         inkscape:label="Mahaska, IA"
         id="IA_Mahaska"
         d="M 421.89474,570.65944 L 437.23366,570.56458 L 437.44764,591.47051 L 427.139,591.55892 L 416.88278,591.60265 L 416.79424,570.68685 L 421.89474,570.65944"
         style="font-size:12px;fill: #999999;fill-opacity:1;fill-rule:nonzero;stroke:#ffffff;stroke-width:1.31847560000000000" />
      <path
         inkscape:label="Marion, IA"
         id="IA_Marion"
         d="M 416.79424,570.68685 L 416.88278,591.60265 L 406.6231,591.6092 L 396.37865,591.57452 L 396.42943,571.66915 L 396.42297,570.70929 L 416.79424,570.68685"
         style="font-size:12px;fill: #999999;fill-opacity:1;fill-rule:nonzero;stroke:#ffffff;stroke-width:1.31847560000000000" />
      <path
         inkscape:label="Monroe, IA"
         id="IA_Monroe"
         d="M 427.139,591.55892 L 427.24777,607.33407 L 406.65749,607.39124 L 406.6231,591.6092 L 416.88278,591.60265 L 427.139,591.55892"
         style="font-size:12px;fill: #999999;fill-opacity:1;fill-rule:nonzero;stroke:#ffffff;stroke-width:1.31847560000000000" />
      <path
         inkscape:label="Muscatine, IA"
         id="IA_Muscatine"
         d="M 504.44046,564.35421 L 509.70732,572.918 L 506.97412,572.85401 L 500.65811,574.36323 L 498.96223,574.91645 L 498.47532,575.21154 L 498.43291,575.23337 L 498.4323,575.25188 L 498.10319,575.68644 L 498.05782,575.80088 L 497.35583,578.33292 L 496.76258,580.36312 L 483.84849,580.45189 L 483.78863,575.20667 L 483.70742,564.67107 L 504.44046,564.35421"
         style="font-size:12px;fill: #999999;fill-opacity:1;fill-rule:nonzero;stroke:#ffffff;stroke-width:1.31847560000000000" />
      <path
         inkscape:label="Scott, IA"
         id="IA_Scott"
         d="M 504.2786,553.87632 L 509.25192,553.76608 L 524.13179,553.81882 L 530.12351,555.79017 L 529.22591,562.27511 L 526.81099,565.31346 L 524.06337,568.31804 L 515.49655,572.22646 L 511.87344,573.02881 L 510.34839,573.02188 L 509.70732,572.918 L 504.44046,564.35421 L 504.2786,553.87632"
         style="font-size:12px;fill: #999999;fill-opacity:1;fill-rule:nonzero;stroke:#ffffff;stroke-width:1.31847560000000000" />
      <path
         inkscape:label="Van Buren, IA"
         id="IA_Van_Buren"
         d="M 447.91541,607.17738 L 468.6108,606.87783 L 468.65602,612.14575 L 468.92558,625.06097 L 458.69881,624.76261 L 448.02753,625.17325 L 447.91541,607.17738"
         style="font-size:12px;fill: #999999;fill-opacity:1;fill-rule:nonzero;stroke:#ffffff;stroke-width:1.31847560000000000" />
      <path
         inkscape:label="Wapello, IA"
         id="IA_Wapello"
         d="M 437.44764,591.47051 L 447.75255,591.35415 L 447.91541,607.17738 L 427.24777,607.33407 L 427.139,591.55892 L 437.44764,591.47051"
         style="font-size:12px;fill: #999999;fill-opacity:1;fill-rule:nonzero;stroke:#ffffff;stroke-width:1.31847560000000000" />
      <path
         inkscape:label="Washington, IA"
         id="IA_Washington"
         d="M 463.17453,570.19595 L 476.93,570.03666 L 477.6285,571.10203 L 478.64587,575.25127 L 478.79302,590.98588 L 468.50607,591.12138 L 458.22131,591.18736 L 457.99254,570.30879 L 463.17453,570.19595"
         style="font-size:12px;fill: #999999;fill-opacity:1;fill-rule:nonzero;stroke:#ffffff;stroke-width:1.31847560000000000" />
      <path
         inkscape:label="Wayne, IA"
         id="IA_Wayne"
         d="M 406.65749,607.39124 L 406.66088,626.32476 L 394.16109,626.50556 L 385.91016,626.46955 L 386.03831,607.33623 L 406.65749,607.39124"
         style="font-size:12px;fill: #999999;fill-opacity:1;fill-rule:nonzero;stroke:#ffffff;stroke-width:1.31847560000000000" />
    </g>
    <g
       id="CD1"
       inkscape:label="#IA_CD1">
      <path
         inkscape:label="Allamakee, IA"
         id="IA_Allamakee"
         d="M 488.20818,450.3101 L 488.81134,454.94679 L 488.67173,458.01603 L 493.20364,461.42431 L 494.16801,462.72997 L 495.41144,464.87904 L 495.22095,465.61933 L 491.70723,471.13074 L 490.43208,475.49888 L 471.81623,475.71639 L 471.64267,460.08293 L 471.327,460.09604 L 471.19465,450.58337 L 488.20818,450.3101"
         style="font-size:12px;fill: #999999;fill-opacity:1;fill-rule:nonzero;stroke:#ffffff;stroke-width:1.31847560000000000" />
      <path
         inkscape:label="Benton, IA"
         id="IA_Benton"
         d="M 462.53343,522.85586 L 462.82602,549.14668 L 442.15446,549.28005 L 441.945,523.1449 L 452.24845,523.07483 L 462.53343,522.85586"
         style="font-size:12px;fill: #999999;fill-opacity:1;fill-rule:nonzero;stroke:#ffffff;stroke-width:1.31847560000000000" />
      <path
         inkscape:label="Black Hawk, IA"
         id="IA_Black_Hawk"
         d="m 451.30531,502.35428 0.11552,10.47644 0.7772,1.35992 0.0504,8.88419 -10.30345,0.0701 -10.34524,0.0733 -0.92813,-15.52309 -0.0797,-5.20413 20.71338,-0.13672"
         style="font-size:12px;fill: #999999;fill-opacity:1;fill-rule:nonzero;stroke:#ffffff;stroke-width:1.3184756"
         inkscape:connector-curvature="0" />
      <path
         inkscape:label="Bremer, IA"
         id="IA_Bremer"
         d="m 430.53359,486.58766 20.62538,-0.13951 0.14634,15.90613 -20.71338,0.13672 -0.0583,-15.90334"
         style="font-size:12px;fill: #999999;fill-opacity:1;fill-rule:nonzero;stroke:#ffffff;stroke-width:1.3184756"
         inkscape:connector-curvature="0" />
      <path
         inkscape:label="Buchanan, IA"
         id="IA_Buchanan"
         d="m 472.09942,502.01155 -0.0202,4.55655 0.1027,5.93735 0.57186,5.76223 0.10297,4.62075 -10.32333,-0.0326 -10.28498,0.21897 -0.0504,-8.88419 -0.7772,-1.35992 -0.11552,-10.47644 20.79411,-0.34273"
         style="font-size:12px;fill: #999999;fill-opacity:1;fill-rule:nonzero;stroke:#ffffff;stroke-width:1.3184756"
         inkscape:connector-curvature="0" />
      <path
         inkscape:label="Clayton, IA"
         id="IA_Clayton"
         d="m 490.43208,475.49888 0.74515,5.7075 0.83152,4.59763 3.7051,8.98222 0.50598,1.14269 3.4498,2.45121 1.19554,0.59908 2.27968,0.61979 -10.28005,1.95298 -20.76538,0.45957 -0.28319,-26.29516 18.61585,-0.21751"
         style="font-size:12px;fill: #999999;fill-opacity:1;fill-rule:nonzero;stroke:#ffffff;stroke-width:1.3184756"
         inkscape:connector-curvature="0" />
      <path
         inkscape:label="Delaware, IA"
         id="IA_Delaware"
         d="m 472.09942,502.01155 20.76538,-0.45957 0.53974,21.01364 -10.2644,0.15476 -10.28338,0.16805 -0.10297,-4.62075 -0.57186,-5.76223 -0.1027,-5.93735 0.0202,-4.55655"
         style="font-size:12px;fill: #999999;fill-opacity:1;fill-rule:nonzero;stroke:#ffffff;stroke-width:1.3184756"
         inkscape:connector-curvature="0" />
      <path
         inkscape:label="Dubuque, IA"
         id="IA_Dubuque"
         d="m 492.8648,501.55198 10.28005,-1.95298 5.62023,1.26407 2.17391,0.59321 0.49232,0.26142 0.30491,0.32495 2.6176,5.14137 0.42901,1.52038 0.017,0.33897 -0.17587,0.28184 -0.64471,1.02717 -0.023,0.13834 0.0311,0.33478 0.0923,0.3043 0.34478,0.38186 0.99554,0.76425 2.90153,1.61779 3.66803,2.73168 0.0179,0.0191 0.10776,0.11005 -8.3641,0.169 0.10558,5.26525 -10.25184,0.19686 -10.20029,0.17994 -0.53974,-21.01364"
         style="font-size:12px;fill: #999999;fill-opacity:1;fill-rule:nonzero;stroke:#ffffff;stroke-width:1.3184756"
         inkscape:connector-curvature="0" />
      <path
         inkscape:label="Fayette, IA"
         id="IA_Fayette"
         d="m 451.07358,475.89851 20.74265,-0.18212 0.28319,26.29516 -20.79411,0.34273 -0.14634,-15.90613 -0.0854,-10.54964"
         style="font-size:12px;fill: #999999;fill-opacity:1;fill-rule:nonzero;stroke:#ffffff;stroke-width:1.3184756"
         inkscape:connector-curvature="0" />
      <path
         inkscape:label="Howard, IA"
         id="IA_Howard"
         d="M 434.95253,450.95263 L 450.89559,450.8121 L 451.03567,468.07641 L 430.44674,468.23562 L 430.43636,450.97544 L 434.95253,450.95263"
         style="font-size:12px;fill: #999999;fill-opacity:1;fill-rule:nonzero;stroke:#ffffff;stroke-width:1.31847560000000000" />
      <path
         inkscape:label="Iowa, IA"
         id="IA_Iowa"
         d="M 442.15446,549.28005 L 462.82602,549.14668 L 463.17453,570.19595 L 457.99254,570.30879 L 442.33933,570.51884 L 442.15446,549.28005"
         style="font-size:12px;fill: #999999;fill-opacity:1;fill-rule:nonzero;stroke:#ffffff;stroke-width:1.31847560000000000" />
      <path
         inkscape:label="Jackson, IA"
         id="IA_Jackson"
         d="m 522.11519,516.75457 2.52889,3.12655 0.11883,0.19847 0.0159,0.22768 -0.30401,1.68246 -0.26797,0.5524 -0.0121,0.37976 0.56744,1.39499 0.0303,0.0659 1.20514,1.6054 0.0405,0.0384 0.73553,0.63082 0.79379,0.54917 1.81985,0.64682 7.42699,9.44399 -32.86744,0.8153 -0.3421,-15.72693 10.25184,-0.19686 -0.10558,-5.26525 8.3641,-0.169"
         style="font-size:12px;fill: #999999;fill-opacity:1;fill-rule:nonzero;stroke:#ffffff;stroke-width:1.3184756"
         inkscape:connector-curvature="0" />
      <path
         inkscape:label="Jones, IA"
         id="IA_Jones"
         d="m 493.40454,522.56562 10.20029,-0.17994 0.3421,15.72693 0.10083,5.26972 -20.67298,0.32344 -0.23464,-20.98539 10.2644,-0.15476"
         style="font-size:12px;fill: #999999;fill-opacity:1;fill-rule:nonzero;stroke:#ffffff;stroke-width:1.3184756"
         inkscape:connector-curvature="0" />
      <path
         inkscape:label="Linn, IA"
         id="IA_Linn"
         d="M 483.14014,522.72038 L 483.37478,543.70577 L 483.45315,548.95158 L 462.82602,549.14668 L 462.53343,522.85586 L 472.85676,522.88843 L 483.14014,522.72038"
         style="font-size:12px;fill: #999999;fill-opacity:1;fill-rule:nonzero;stroke:#ffffff;stroke-width:1.31847560000000000" />
      <path
         inkscape:label="Marshall, IA"
         id="IA_Marshall"
         d="M 411.01765,528.54217 L 421.3157,528.49513 L 421.41856,549.39749 L 400.79865,549.36567 L 400.85969,528.55659 L 411.01765,528.54217"
         style="font-size:12px;fill: #999999;fill-opacity:1;fill-rule:nonzero;stroke:#ffffff;stroke-width:1.31847560000000000" />
      <path
         inkscape:label="Mitchcell, IA"
         id="IA_Mitchell"
         d="M 430.43636,450.97544 L 430.44674,468.23562 L 410.05173,468.27583 L 410.04013,451.05271 L 430.43636,450.97544"
         style="font-size:12px;fill: #999999;fill-opacity:1;fill-rule:nonzero;stroke:#ffffff;stroke-width:1.31847560000000000" />
      <path
         inkscape:label="Poweshiek, IA"
         id="IA_Poweshiek"
         d="M 421.41856,549.39749 L 442.15446,549.28005 L 442.33933,570.51884 L 437.23366,570.56458 L 421.89474,570.65944 L 421.41856,549.39749"
         style="font-size:12px;fill: #999999;fill-opacity:1;fill-rule:nonzero;stroke:#ffffff;stroke-width:1.31847560000000000" />
      <path
         inkscape:label="Tama, IA"
         sodipodi:nodetypes="ccccc"
         id="IA_Tama"
         d="M 441.945,523.1449 L 442.15446,549.28005 L 421.41856,549.39749 L 421.29428,523.29128 L 441.945,523.1449"
         style="font-size:12px;fill: #999999;fill-opacity:1;fill-rule:nonzero;stroke:#ffffff;stroke-width:1.31847560000000000" />
      <path
         inkscape:label="Winneshiek, IA"
         id="IA_Winneshiek"
         d="M 471.19465,450.58337 L 471.327,460.09604 L 471.64267,460.08293 L 471.81623,475.71639 L 451.07358,475.89851 L 451.03567,468.07641 L 450.89559,450.8121 L 466.03263,450.65051 L 471.19465,450.58337"
         style="font-size:12px;fill: #999999;fill-opacity:1;fill-rule:nonzero;stroke:#ffffff;stroke-width:1.31847560000000000" />
      <path
         inkscape:label="Worth, IA"
         id="IA_Worth"
         d="M 410.04013,451.05271 L 410.0502,465.70743 L 389.49585,465.65451 L 389.58753,451.00767 L 408.97345,451.06507 L 410.04013,451.05271"
         style="font-size:12px;fill: #999999;fill-opacity:1;fill-rule:nonzero;stroke:#ffffff;stroke-width:1.31847560000000000" />
    </g>
    <path
       style="fill:none;stroke:#000000;stroke-width:1.60000002;stroke-linecap:butt;stroke-linejoin:miter;stroke-miterlimit:4;stroke-opacity:1;stroke-dasharray:none"
       d="m 401.42203,549.41665 20.13687,-0.0285 0.16058,21.24555 41.55289,-0.33987 -0.39876,-21.06115 20.43894,-0.34826 -0.10997,-5.14328 20.69068,-0.27871 -0.0563,-5.4781 32.08215,-0.5256"
       id="path3225"
       inkscape:connector-curvature="0"
       sodipodi:nodetypes="cccccccccc" />
    <path
       style="fill:none;stroke:#000000;stroke-width:1.60000002;stroke-linecap:butt;stroke-linejoin:miter;stroke-miterlimit:4;stroke-opacity:1;stroke-dasharray:none"
       d="m 394.65605,549.38895 6.07817,0.0216 0.14734,-20.80384 20.41604,-0.18309 0.0458,-5.08113 9.95624,-0.20599 -0.70952,-36.55203 c 6.42376,-0.0313 12.34184,-0.0626 20.61025,-0.0939 l -0.14844,-18.44538 -41.03414,0.2534 0.0356,-2.68182 -20.6616,0.002 0.18311,-13.96165"
       id="path3227"
       inkscape:connector-curvature="0"
       sodipodi:nodetypes="ccccccccccccc" />
    <path
       style="fill:none;stroke:#000000;stroke-width:1.60000002;stroke-linecap:butt;stroke-linejoin:miter;stroke-miterlimit:4;stroke-opacity:1;stroke-dasharray:none"
       d="m 278.75416,568.75221 56.44634,1.37327 0.20995,-5.53295 -1.84503,-3.13133 0.18311,-12.6973 61.1397,0.61649"
       id="path3097"
       inkscape:connector-curvature="0"
       sodipodi:nodetypes="cccccc" />
    <path
       style="fill:none;stroke:#000000;stroke-width:1.60000002;stroke-linecap:butt;stroke-linejoin:miter;stroke-miterlimit:4;stroke-opacity:1;stroke-dasharray:none"
       d="m 365.17639,625.94907 0.34331,-34.33189 30.92161,-0.25177 -0.8698,-42.66311"
       id="path3099"
       inkscape:connector-curvature="0"
       sodipodi:nodetypes="cccc" />
  </g>
</svg>
