<?xml version="1.0" encoding="utf-8"?>
<!-- Generator: Adobe Illustrator 13.0.0, SVG Export Plug-In . SVG Version: 6.00 Build 14948)  -->
<!DOCTYPE svg PUBLIC "-//W3C//DTD SVG 1.1//EN" "http://www.w3.org/Graphics/SVG/1.1/DTD/svg11.dtd">
<svg version="1.1" xmlns="http://www.w3.org/2000/svg" xmlns:xlink="http://www.w3.org/1999/xlink" x="0px" y="0px" width="790px"
	 height="1178px" viewBox="0 0 790 1178" enable-background="new 0 0 790 1178" xml:space="preserve">
<g id="Waldo_County">
	<path fill-rule="evenodd" clip-rule="evenodd" fill="#C1C1C1" 
		d="M330.958,725.909c3.056-0.723,3.644,1.022,6,1
		c1.44,2.56,0.946,7.053,3,8.999c8.432,0.1,14.505-2.16,21.997-3c2.473,6.526,2.385,15.613,5,21.997
		c15.732-4.323,39.049-7.239,54.993-10.998c5.265-1.241,8.498-5.47,12.998-1c-13.707,17.37,12.854,34.303-2.999,51.993
		c-0.182,2.182,0.818,3.182,2.999,3c-1.501,1.498-2.991,3.008-3.999,4.999c-2.931-0.847,0.598-3.219,0-4.999
		c-7.633-1.627-15.356,5.147-20.997,10.998c-2.133-2.2-6.319-2.347-9.999-2.999c4.219,12.247,15.656,19.869,9.999,33.995
		c-3.45,2.384-5.838-0.028-8.999,3c0.89,5.556-1.921,7.412-2,11.998c-4.538-5.073-11.79-1.394-16.998-2.999
		c-13.169-4.06-17.648-22.241-28.996-27.997c-5.084,4.249-9.75,8.915-13.999,13.999c-4.375-1.958-5.799-6.866-9.999-8.999
		c-2.903,6.839-12.261,2.555-17.998,1c3.279-9.72,6.921-19.076,10.999-27.997c2.395,0.605,4.562,1.438,7.999,1
		c3.057-6.274,2.789-15.875,4.999-22.997c-0.314-3.686-5.647-2.352-7.999-3.999c1.286-7.381,2.714-14.617,4-21.998
		c-2.152-2.847-8.661-1.337-11.999-2.999C325.609,743.035,327.009,735.469,330.958,725.909z"/>
	<path fill-rule="evenodd" clip-rule="evenodd" fill="#C1C1C1" 
		d="M420.947,822.897c1.666,0,3.333,0,4.999,0
		c-5.257,11.117-0.924,25.695-8.998,33.995c0.812-3.297,4.513-11.249-1-11.998c-0.043-3.709,3.749-3.583,4.999-5.999
		C419.546,831.257,422.35,830.535,420.947,822.897z"/>
</g>
<g id="Kennebec_County">
	<path fill-rule="evenodd" clip-rule="evenodd" fill="#C1C1C1" 
		d="M311.961,735.908c0.998,3.428-0.567,10.749,6,10.998
		c-1.117,1.55-3.25,2.083-3,5c1.94,3.059,7.31,2.689,11.999,2.999c1.071,5.938-2.957,14.894-3,22.997c1.453,1.547,3.9,2.1,6.999,2
		c-0.064,7.602-1.505,13.826-3,19.998c-3.156,0.489-3.531-1.802-6.999-1c-9.452,14.212-13.314,34.013-18.998,51.993
		c-7.128-0.537-12.711-2.621-18.998-3.999c-7.51,6.823-4.987,26.733-4,38.995c-15.664-1.698-41.529-23.963-43.995,3.999
		c-7.249-1.75-15.386-2.611-20.998-5.999c0.722-4.944,3.918-7.414,6-10.999c-3.847-3.819-11.49-3.841-14.998-7.999
		c1.886-18.218-2.462-30.2-7.999-40.995c6.634-6.975-0.71-19.632-1-28.996c6.148-0.511,9.866,1.015,13.998,0
		c5.774-7.184,4.048-9.439-3-13.998c1.314-5.019,4.125-8.539,5.999-12.998c3.737,1.929,8.171,3.161,12.999,3.999
		c3.688-1.311,4.752-5.247,6-8.999c8.347-2.995,19.873-3.279,18.998,7.999c2,0,4,0,5.999,0c2.801-0.531,1.849-4.817,3-6.999
		c7.607,5.392,20.641,5.356,29.997,8.999c6.752-2.464,3.094-9.549,6.999-13.998c-1.752-7.58-10.006-8.658-8.999-18.998
		C295.975,738.586,303.624,736.903,311.961,735.908z"/>
</g>
<g id="Somerset_County">
	<path fill-rule="evenodd" clip-rule="evenodd" fill="#C1C1C1" 
		d="M222.972,250.969c14.421,2.243,32.93,0.399,48.994,1
		c-0.719,52.156-3.497,99.144-3,153.98c4.771,0.772,6.436-1.563,10.999-1c0.243,10.789,7.748,25.205,0,31.996
		c-3.192-1.14-1.916-6.75-4.999-7.999c-3.19-0.857-3.093,1.574-5,2c-0.295,3.961,1.221,6.111,3,7.999
		c-3.834,5.925-0.901,13.235-5,21.997c-5.32,0.654-4.749-4.583-7.999-5.999c-2.353,3.979-2.424,10.241-6.999,11.998
		c3.716,4.349,3.696,6.763,6,12.999c1.889,4.11,8.747,3.251,7.999,9.999c2.983,1.433,3.399-0.816,5.999,1
		c-0.027,11.358-4.209,22.605-13.998,26.997c11.577,46.84,15.267,95.86,28.996,140.983c8.954-0.379,15.318-3.347,23.997-4
		c2.567-2.143-0.837-5.587,1-6.999c7.596-1.199,17.76-4.727,23.997-3.999c4.66,30.563,11.832,57.258,13.998,87.988
		c-3.868-0.535-4.881,1.785-8.999,1c-1.5-2.832-1.117-7.549-3-9.999c-2.666,0-5.333,0-7.999,0
		c-8.863,4.554-4.106,21.24-14.998,19.998c-1.167-1.913,4.502-5.443,1-9.999c-8.825-0.714-21.535,3.046-31.996,4
		c-0.995,10.993,3.684,16.313,8.999,20.997c-2.02,4.204-2.782,7.044-3,10.999c-11.541-1.458-21.971-4.026-30.997-7.999
		c-4.896-0.564-0.775,7.89-5.999,6.999c-0.088-9.975-12.663-12.059-20.998-7.999c-2.822-4.844-5.944-9.387-5.999-16.998
		c-1.289-1.378-4.343-0.989-6.999-1c-4.623-13.312,4.425-28.27-6-35.995c3.203-3.06,1.462-9.052,0-12.999
		c-5.737,0.929-12.058,1.274-16.998,3c-2.74-6.872-3.128-13.247-4-19.998c2.403-1.263,6.046-1.286,7.999-2.999
		c-3.246-16.085-6.721-31.941-8.999-48.994c-9.166-0.045-19.335,3.83-25.997,3c0.782-4.449-1.332-6.001-1-9.999
		c-5.28-7.318-14.668,0.19-19.998,2c-11.17-43.772-14.453-89.498-21.998-132.983c10.332,0.144,11.17-12.764,20.998-9.999
		c3.602-3.397,7.464-6.534,9.999-10.999c-0.881-5.119-4.375-7.624-6-11.999c7.549-5.449,9.292-16.706,20.998-17.998
		c4.359-3.307,6.498-8.833,10.999-11.999c1.366-4.366-3.872-2.128-3-6c2.332-0.334,4.308-1.025,4.999-3
		c-2.74-4.593-5.656-9.008-11.999-9.999c3.537-2.548,1.609-8.027-2-8.999c5.595-3.618-1.722-10.231,6.999-11.999
		c-3.611-6.072-1.036-9.678,6-9.999c-2.444-7.75,1.942-7.767,2-14.998c-0.694-4.971-6.44-4.892-8.999-7.999
		c2.268-9.064,8.588-14.075,7.999-25.997c3.066-1.267,5.261-3.405,7.999-5c-3.652-7.579,4.286-7.943,5-13.998
		c1.161,0.839,2.681,1.319,5,1c1.616-4.05,5.849-5.483,5.999-10.999c3.028-1.304,8.245-0.421,9.999-3
		C217.886,277.878,219.134,263.129,222.972,250.969z"/>
</g>
<g id="Androscoggin_County">
	<path fill-rule="evenodd" clip-rule="evenodd" fill="#C1C1C1" 
		d="M214.973,872.891c-1.86,3.14-3.242,6.757-4,10.999
		c-0.788,4.12,4.787,1.878,4,5.999c-2.238,12.238-8.309,25.469-6,36.995c-3.962,7.39-9.713,8.387-13.998,13.999
		c-5.102-2.854-12.641-7.111-19.998-14.999c-10.179-10.912-17.222-26.725-24.997-5.999c-6.767-4.516-14.982-3.543-20.998-9.998
		c-1.189-11.072,6.491-16.317,12.999-24.997c6.583-8.781,9.015-16.633,16.998-19.998c3.558-13.106,7.631-25.698,11.999-37.995
		c-1.986-6.346-3.299-13.365-3-21.997c6.776-4.89,13.557-9.773,24.997-9.999c1.047,7.618,2.77,14.562,4,21.997
		c-7.46,6.969,1.798,17.985,4.999,25.997c0,7.666,0,15.331,0,22.997C206.05,870.626,206.897,872.385,214.973,872.891z"/>
</g>
<g id="Knox_County">
	<path fill-rule="evenodd" clip-rule="evenodd" fill="#C1C1C1" 
		d="M386.952,887.889c-0.697,2.636-4.552,2.114-5,5
		c0.605,2.395,1.438,4.562,1,7.999c4.283,0.616,4.077-3.256,7.999-3c2.5,4.013-5.491,4.803-3,11.999
		c-6.297,1.297-6.139-3.86-8.999-6c-1.247,2.062-3.81,10.184,1,9.999c-1.123,2.543-2.456,4.876-4,6.999
		c-1.204-1.129-1.812-2.854-5-2c-1.395,4.149-3.517,1.355-6,4c2.194,4.514-5.398,7.689,0,8.999
		c-0.691,4.975-7.583,3.748-8.999,7.999c-5.108-5.731,4.565-6.181,1-12.999c9.007-3.658,9.347-15.982,15.998-21.997
		c0.582-3.581-2.959-3.04-5.999-3c-1.993,4.207-3.336,6.782-5,12.999c-8.034,1.964-9.545,10.452-13.998,15.998
		c-2.524-2.269,1.32-6.622,2-8.999c-0.19-0.811-1.003-0.996-1-2c-3.555,1.111-8.234,1.099-7.999,5.999
		c-1.987-0.013-1.271-2.728-4-1.999c0.126-2.873,1.251-4.748,4.999-4c3.085-4.914,3.97-12.027,8.999-14.998
		c-5.415-13.115-2.801-25.636-8.999-39.995c-17.681,4.825-23.094-10.765-20.997-25.996c5.364,1.031,5.912-2.754,7.999-5
		c3.991,1.675,5.13,6.202,8.999,7.999c6.078-3.921,9.091-10.907,15.998-13.998c7.593,10.405,17.294,18.701,25.997,27.996
		c3.668-1.584,13.7-2.005,15.998,1c-0.542,6.79-5.411,9.254-3.999,17.998c-1.793,0.127-2.109-1.224-4-1
		C389.372,879.757,382.097,884.933,386.952,887.889z"/>
	<path fill-rule="evenodd" clip-rule="evenodd" fill="#C1C1C1" 
		d="M475.94,899.888c1.341,4.556,0.383,8.106-1,13.998
		c-3.295,1.553-4.996,0.897-6.999,2C469.51,911.493,467.57,900.985,475.94,899.888z"/>
	<path fill-rule="evenodd" clip-rule="evenodd" fill="#C1C1C1" 
		d="M434.945,888.889c6.155,1.671-0.319,4.797,1,9.999
		c0.276,3.391,6.573,0.76,6.999,3.999c-2.128,2.872-4.879,5.12-5.999,8.999c-3.359,1.026-1.557-3.109-2-4.999
		c-3.058-0.726-2.94,1.725-5.999,1c0.452-4.683-2.288-6.299-3-11.999c-1.666,0-3.332,0-4.999,0c0.329-2.337,1.202-4.131,2-5.999
		c0.89,0.776,2.258,1.075,3.999,1c-0.318,2.318,0.161,3.839,1,4.999C431.794,895.069,431.721,890.33,434.945,888.889z"/>
	<path fill-rule="evenodd" clip-rule="evenodd" fill="#C1C1C1" 
		d="M435.945,873.891c-1.529,3.18-0.351,4.398,0,7.999
		c-9.667,0.835-11.917,3.671-19.997,4.999C422.858,882.801,426.15,875.094,435.945,873.891z"/>
</g>
<g id="Franklin_County">
	<path fill-rule="evenodd" clip-rule="evenodd" fill="#C1C1C1" 
		d="M141.982,621.922c9.444,1.779,10.41-4.921,17.998-4.999
		c3.518,2.481,3.108,8.891,4,13.998c8.903-0.762,17.142-2.189,24.997-3.999c2.132,14.437,6.117,27.98,7.999,44.994
		c-2.656,0.01-5.71-0.378-7,1c-1.531,10.906,1.765,15.003,4,25.996c7.066,0.835,13.148-3.865,18.998-0.999
		c-5.272,6.952-0.214,13.532,4,18.997c-4.677,7.107-0.754,20.597,2,28.996c2.826,0.827,2.59-1.409,5-0.999
		c-2.692,7.949,10.855,15.658,2,23.997c-4.728-1.271-9.27-2.729-13.998-4c-4.395,3.938-5.679,10.985-8.999,15.998
		c1.029,3.304,4.186,4.479,6.999,5.999c-0.429,1.904-2.154,2.512-2,5c-10.33-2.07-25.236,0.915-33.996,3.999
		c1.207-7.205-2.457-9.542-6.999-10.998c0.504-7.693-4.998-9.195,0-13.999c-12.997-6-29.947-8.048-45.994-10.998
		c-0.74-3.406,3.685-1.648,4-4c-4.428-16.902-12.271-30.39-17.998-45.994c-10.641,3.024-18.236,9.094-26.997,13.998
		c-0.346-26.023-5.462-45.391-9.999-68.991c2.288-1.045,6.031-0.635,7.999-2c-1.93-11.796-3.049-25.472-5-40.994
		c-2.144-17.063-7.284-28.734,2-37.996c-2.252-5.511-2.66-10.924,2-13.998c-0.234-3.766-3.766-4.234-4-7.999
		c2.054-0.279,1.996-2.671,3-4c3.868-0.535,4.881,1.785,8.999,1c1.714,1.953,1.737,5.596,3,7.999c6.244-0.911,10.09,0.576,11.999,4
		c2.826,0.826,2.59-1.409,5-1c6.202-6.403,2.522-21.252-6.999-20.998c1.865-6.104-4.645-6.58-5-10.999
		c-0.531-6.626,4.023-7.938,6.999-12.999c0.731-1.244-0.581-3.665,0-5c4.149-9.528,18.141-12.323,18.998-20.997
		C128.801,530.417,131.609,578.856,141.982,621.922z"/>
</g>
<g id="Sagadahoc_County">
	<path fill-rule="evenodd" clip-rule="evenodd" fill="#C1C1C1" 
		d="M268.966,973.878c-1.759,0.241-2.279,1.721-2,4
		c-3.237-3.252-3.893,1.182-5,2.999c-2.657-3.355-4.838-10.256-2-16.997c-6.191,0.989-1.137-3.892-4-8.999
		c-11.563,8.307-1.958,25-2,33.995c-6.331-0.665-6.737,4.596-9.999,6.999c0.53-4.469,2.351-7.647,3-11.998
		c-0.658-2.994-2.137,0.956-4,0c0.664-4.663-1.576-6.424-2-9.999c2.319,0.319,3.839-0.16,5-1c-2.003-3.675-0.09-6.723,0-10.998
		c-0.658-2.995-2.137,0.956-4,0c2.2-7.866,2.038-20.457-2-28.997c-7.027,4.409-9.67,9.173-18.998,7
		c-4.495-4.837-7.599-11.065-10.999-16.998c4.681-8.491,3.619-22.999,7.999-33.996c5.091,2.242,12.686,1.979,16.998,5
		c5.35-2.983,2.848-13.817,8.999-15.998c5.185,2.146,12.106,2.558,16.998,4.999c-3.421,9.91-5.051,21.612-9.999,29.996
		c4.796,2.87,11.621,3.711,17.998,4.999c-0.79,11.039-4.271,25.836,3,31.996c-0.912,4.055-6.425,10.887-2,13.999
		C267.663,967.386,265.877,969.721,268.966,973.878z"/>
</g>
<g id="Cumberland_County">
	<path fill-rule="evenodd" clip-rule="evenodd" fill="#C1C1C1" 
		d="M219.973,959.88c-2.725-0.92,1.396-3.126,0-5.999
		c-8.073,1.259-12.93,5.734-14.998,12.998c-1.352,0.169-1.999-5.085-3-2c-2.735-0.909,1.775-3.503-1-4.999
		c-3.94,2.06-6.376,5.622-7,10.999c-5.87-1.204-6.83,2.502-7.999,5.999c-10.76-1.428-5.836,12.827-10.999,16.998
		c-1.862-0.138-3.342-0.658-4-2c-4.287,3.429-0.517,8.765-5.999,10.999c0.359,2.64,2.402,3.597,5.999,2.999
		c-0.745,3.921-5.895,3.438-5.999,7.999c2.365,3.259,5.664-0.923,7.999-1c-0.197,2.863-0.125,5.457,3,5
		c-4.707,7.121,3.723,6.764,1,14.998c-4.378-1.365-5.142-0.124-8.999,1c-0.777-0.891-1.075-2.259-1-4
		c-5.04,2.292-7.279,7.386-10.999,10.999c-0.135-3.198,0.986-7.651-3-6.999c-4.975-0.072-0.655,2.941-3,4.999
		c-8.605-5.394-15.891-12.106-22.998-18.998c0.234-3.765,3.766-4.233,4-7.999c-3.383-8.948-11.84-12.822-15.998-20.997
		c-3.657,0.343-4.576,3.424-6,5.999c-4.032-1.634-8.535-2.796-12.999-3.999c4.703-5.394-0.505-11.879,0-18.998
		c-1.303-3.695-6.783-3.216-8.999-5.999c-4.219,0.447-5.392,3.941-10.999,3c-4.136-3.637-6.314-13.074-4-19.998
		c9.512,4.61,3.288-13.632,9.999-14.998c0.745-3.077-2.745-1.922-2-4.999c1.992-1.008,3.501-2.498,4.999-4
		c-6.783-10.214-11.35-22.646-25.997-24.997c0-1.999,0-3.999,0-5.999c2.039,0.295,1.96,2.706,4,3
		c12.251-7.747,24.591-15.403,36.995-22.997c12.713,8.388-4.729,30.113,8.999,39.995c3.044-1.255,3.888-0.765,6,1
		c3.245-1.755,4.999-5.001,6.999-7.999c9.078,7.454,18.818,11.218,26.997,14.998c4.047-2.619,6.117-7.215,8.999-10.999
		c12.909,9.755,21.26,24.067,35.995,31.996c6.861-4.421,11.937-6.588,15.998-14.998c3.172,12.415,21.732,18.94,29.997,6.999
		c-2.415,9.917-8.112,16.552-13.999,22.997C227.194,956.746,221.52,955.871,219.973,959.88z"/>
</g>
<g id="Lincoln_County">
	<path fill-rule="evenodd" clip-rule="evenodd" fill="#C1C1C1" 
		d="M307.961,961.88c-2.143-8.485-2.397-14.523-5-20.997
		c-2.637-0.305-2.579,2.087-3,3.999c-3.992-4.723-0.063-10.851-4-15.998c-7.9,4.812-5.841,20.136-2,27.996
		c-0.259,0.137-9.401-0.178-5,4c-1.704,3.788-1.646-2.171-3-2c-4.832,1.167-3.492,8.507-6,11.999
		c-3.927-5.564,1.284-22.664,3-31.996c-2.594-2.545-3.77-1.327-6-5c-2.384,2.949-2.903,7.763-5,10.999
		c-1.149-8.99-2.771-20.898,2-26.997c-4.319-4.013-11.906-4.758-18.998-5.999c4.86-6.805,4.174-19.155,8.999-25.996
		c5.638,1.028,10.601,2.73,15.998,3.999c4.479-9.07-2.138-28.56,3-38.995c15.848,5.611,28.179,2.501,25.997-16.998
		c2.619-1.889,6.197,1.945,10.999,1c-5.957,14.125-0.37,39.437,19.998,32.996c6.199,12.788,1.101,25.344,7.999,35.995
		c-5.631,1.368-3.916,10.082-8.999,11.999c-3.376-3.729-0.011-4.07,1-7.999c-1.275-5.058-5.706-6.959-8.999-9.999
		c-5.048,2.229,0.229,6.497,1,8.999c-3.708-0.043-3.583,3.749-6,4.999c-1.319,4.652,3.32,3.347,2,7.999
		c-1.768,0.878-2.919,3.169-5,1C315.182,934.653,315.33,946.221,307.961,961.88z"/>
</g>
<g id="Hancock_County">
	<path fill-rule="evenodd" clip-rule="evenodd" fill="#C1C1C1" 
		d="M518.936,895.888c-1.232-2.827-1.232-6.171,0-8.999
		c1.614,0.282,1.721-0.944,2.999-0.999C529.738,888.987,530.403,896.769,518.936,895.888z M519.935,892.889
		C529.174,893.008,518.946,882.78,519.935,892.889L519.935,892.889z"/>
	<path fill-rule="evenodd" clip-rule="evenodd" fill="#C1C1C1" 
		d="M481.939,831.896c-1.342,5.103,3.075,11.047,6.999,13.999
		c0.305,4.082-2.087,0.534-3.999,1c-2.617,7.617,6.881,7.322,3.999,11.998c-3.376-4.956-7.376-9.288-13.998-10.999
		c-0.725-3.058,1.726-2.94,1-5.999c-10.555,3.868-19.311-2.385-22.997-10.998c-8.304-0.1-8.12,5.042-14.998,6.999
		c-2.161-7.827,3.719-7.613,3.999-12.999c2.442,0.558,2.131,3.869,6,3c2.984-1.368,1.486-7.491-2-7.999
		c-0.003-3.336,3.253-3.413,2.999-6.999c-4.763-1.278-9.349,3.637-10.998,5.999c-0.13-7.462,2.724-11.941,5.999-15.998
		c-4.014-12.668,10.577-18.826,6.999-30.996c-4.808,0.668-3.18,2.57-2.999,6.999c-4.975-7.442-2.95,3.87-4,6.999
		c-5.405-2.458-2.294-7.676-3.999-12.998c-3.643-11.369-10.995-16.932-1-28.996c3.45-0.118,4.648,2.017,3.999,5.999
		c2.333,0,4.666,0,6.999,0c3.049-4.617,3.83-11.501,8.999-13.998c3.528,0.138,4.471,2.861,7.999,2.999
		c3.865-1.468,4.794-5.871,6.999-8.999c11.271-0.727,19.984-4.012,30.996-4.999c-2.154-20.509-6.368-38.959-9.998-57.992
		c6.827-2.172,15.281-2.716,22.997-4c0.508-9.507-3.508-14.489-3-23.997c7.912-0.42,14.519-2.146,20.997-3.999
		c-0.552-11.78-3.821-20.843-4.999-31.996c13.497-2.834,28.394-4.27,40.995-7.999c6.259,23.404,10.345,48.981,13.998,74.99
		c-7.885,0.447-14.18,2.484-20.997,4c3.79,23.872,8.775,46.551,12.998,69.991c0.241,1.759,1.72,2.279,4,1.999
		c3.112,18.682,0.482,31.144,4.999,51.994c-1.87-1.463-1.18-5.486-4.999-5c-2.949,4.982,3.602,9.039,2.999,14.999
		c1.794,0.127,2.109-1.225,4-1c1.343,2.322-0.139,7.471,3.999,6.999c-0.227,1.44-2.984,0.349-3,2c-3.228,0.895-1.404-3.262-2.999-4
		c-1.907,0.426-1.81,2.856-4.999,2c2.419,4.854-2.355,12.415-6,16.998c-1.22-5.42,0.498-15.765-6.999-12.999
		c-3.223-5.23-4.061-15.455,1-18.997c-1.795-4.871-10.365-2.967-10.999-8.999c-5.73-0.188-0.115,4.756-2.999,6.999
		c-3.466-1.534-4.09-5.909-4-10.999c-3.654-3.677-11.455-3.209-9.998-11.998c2.506-1.679,6.585,1.265,7.999-3
		c-3.351-7.077-13.407-0.891-17.998,2c-0.22,4.886,4.143,5.19,5.999,7.999c-0.43,1.57-3.145,0.854-2,4
		c-2.221-1.113-2.708-3.957-4.999-5c-2.894,1.772-1.76,7.572-4.999,8.999c1.448,6.322,7.217-0.011,9.998,2
		c-0.162,1.162,0.221,1.779,1,1.999c-1.608,4.2-5.782,4.147-1.999,8.999c-3.358-1.92-7.436-1.58-9.999-1.999
		c0.259-4.926,0.386-9.719-5-8.999c-1.608,5.286,2.546,11.841-0.999,17.997c-5.006-2.921-5.297,6.399-9.999,7
		c-0.273-8.939,4.647-21.089,0-27.997c-2.054,0.279-1.996,2.671-3,4c-2.492-1.444-9.66-5.67-11.998-1
		c3.04,3.958,7.215,6.783,6.999,13.998c-1.85-0.15-0.614-3.386-2-4c-3.386,1.281-1.568,7.764-3.999,9.999
		c-4.172-1.709-6.927-0.936-5,4c-3.8-0.533-5.543-3.122-9.998-3c4.124,8.306-2.34,12.181-2,21.997
		C480.22,834.175,481.699,833.655,481.939,831.896z M547.932,773.903c0.122,2.544,1.455,3.877,3.999,3.999
		C552.94,773.969,549.722,772.097,547.932,773.903z"/>
	<path fill-rule="evenodd" clip-rule="evenodd" fill="#C1C1C1" 
		d="M509.937,873.891c2.819,0.18,1.247,4.752,4.999,4
		c-0.016,2.983-2.6,3.399-3,5.999c-3.715,0.382-2.613-4.052-6.999-3C505.688,877.642,509.394,877.347,509.937,873.891z"/>
	<path fill-rule="evenodd" clip-rule="evenodd" fill="#C1C1C1" 
		d="M456.942,862.893c5.16,2.947,6.557,6.147,14.999,3.999
		c-2.315,2.222,0.339,3.899,0,6.999c-0.891,0.776-2.259,1.075-4,1c-0.93,10.438-7.046,0.834-10.999,0
		c3.66-4.513,0.821-7.837-1.999-10.999C456.105,864.055,456.722,863.672,456.942,862.893z"/>
	<path fill-rule="evenodd" clip-rule="evenodd" fill="#C1C1C1" 
		d="M463.942,850.894c2.963,2.703,8.297,3.034,9.998,6.999
		c-2.808,1.525-4.826,3.839-7.999,5c-1.619-1.714-0.93-5.736-4.999-5C460.5,854.117,462.914,853.198,463.942,850.894z"/>
	<path fill-rule="evenodd" clip-rule="evenodd" fill="#C1C1C1" 
		d="M492.938,821.897c3.053,2.613,4.365,6.966,3.999,12.998
		c-2.465,0.132-4.817,0.151-5.999-1C492.147,830.439,493.646,827.271,492.938,821.897z"/>
	<path fill-rule="evenodd" clip-rule="evenodd" fill="#C1C1C1" 
		d="M539.933,807.899c1.051,7.614,5.216,12.115,11.998,13.998
		c5.704,13.532-4.011,25.336-17.997,21.997c-4.779-3.887,1.636-18.967-6-19.998c-6.822,4.997,3.973,17.653,0,25.997
		c0.691,1.975,2.668,2.666,5,3c-0.59,4.076-2.923,6.409-6.999,6.999c-3.704-4.522-9.966-4.143-13.999-9.999
		c2.734-4.514-1.607-5.834-1.999-9.999c3.938-4.061,4.858-11.139,5.999-17.997c3.45-1.217,5.837-3.495,8.999-5
		c1.282-4.405-4.785-4.096-2-6.999C527.914,810.055,532.343,807.953,539.933,807.899z"/>
</g>
<g id="Washington_County">
	<path fill-rule="evenodd" clip-rule="evenodd" fill="#C1C1C1" 
		d="M745.906,643.92c9.313,6.944,10.065,19.132,10.999,29.996
		c-3.78-1.448-1.919,2.747-4.999,1.999c-1.718-1.282-0.021-5.979-3-5.999c-2.873,0.127-4.748,1.251-3.999,5
		c-3.516-0.151-2.402-4.931-6.999-4c-3.678,5.38,4.964,7.007,7.998,8.999c-1.388,1.278-0.611,4.721-1.999,5.999
		c-2.854-4.01-9.147-9.247-14.998-6.999c-0.687,3.353,1.677,3.655,3.999,4c-4.361,6.932,15.701,10.513,5,21.997
		c0.729,3.688,3.008-0.426,4.999,1.999c3.992-4.092,2.439-11.687,1-16.997c3.28,0.719,1.105,6.893,4.999,6.999
		c2.168,0.168,0.453-3.547,1-5c2.826,0.827,2.59-1.409,4.999-0.999c-1.47,5.465-0.287,4.29,3,4.999c0.812,3.458-1.867,4.221,0,5.999
		c3.819,0.487,3.13-3.536,4.999-4.999c2.442-2.535,2.131,2.107,6,1c0.327,2.405,1.145,9.431,2.999,6.999
		c1.601,3.963-6.52,6.789-7.999,10.998c-3.871,2.082-1.634-1.49-5.999-1c-0.445,3.068-6.528,4.664-3,7
		c-1.513,1.486-4.388,1.61-6.999,1.999c5.274,8.579-6.852,11.752-7.999,19.998c-3.769-0.769-4.779,1.22-7.999,1
		c-0.086,1.419-0.165,2.831,1,2.999c-0.965,2.035-3.84,2.16-6.999,2c-0.739-3.663,2.459-5.556,0-7.999
		c-3.146-0.479-3.908,1.424-5.999,2c0.31,3.022-1.11,7.776,2,7.999c-7.983,3.557-9.757-12.303-6-17.998
		c-4.038-2.005-12.145,0.495-13.998,4c-4.765-0.962-0.438-4.835-3-8c-2.487-0.153-3.095,1.571-4.999,2
		c1.172,3.027,3.034,5.358,1,8.999c3.384,0.949,3.471,5.194,5.999,6.999c-3.191,3.211-0.906,10.756-6.999,12.999
		c-1.075-5.115,0.079-6.944-1-10.999c-4.026-1.026-4.442,1.557-5.999,3c-0.158,3.281,4.472,4.408,2,6.999
		c-1.163-0.163-1.779,0.221-2,1c-3.272-1.576-2.044-3.851-6.999-2c3.12-3.621-2.226-5.179-2-8.999c-2.503-0.17-3.13,1.536-3.999,3
		c-2.884-1.449-3.207-5.46-6-7c-4.224,1.307,1.221,4.689,0,8.999c-2.822,1.58-4.246-1.149-6.999,1c8.281,4.38,1.505,15.259,5,21.997
		c-3.113,1.22-6.338,2.328-10.999,2c2.242-5.642-3.627-6.28-4.999-9.999c-3.206,0.794-4.521,3.479-4,7.999
		c-5.287-3.193-4.864,4.14-7.999,6c-9.451-7.384,0.871-16.365-2.999-25.997c-5.332,3.334-3.977,13.355-7.999,17.998
		c-1.256-4.113,2.918-10.45,0-15.998c-2.739,1.26-3.741,4.257-5,6.999c-1.439-0.227-0.349-2.984-1.999-3
		c-1.794-0.127-2.109,1.225-4,1c0.595,2.071-1.235,6.568,1,6.999c-4.719,1.323-3.346,5.508-3.999,8.999
		c-2.796-2.537-4.745-5.921-8-7.999c-1.439,5.459,6.434,10.217,7,16.998c-3.629,0.841-6.016,4.937-8.999,1
		c-1.947,1.385-3.072,3.594-5.999,3.999c3.368,4.188,0.684,8.584,0.999,14.998c-4.416-5.687-6.396-11.652-4.999-20.997
		c-0.31-1.357-2.504-0.829-3.999-1c-1.308-6.358-1.687-13.646-4-18.997c4.52-4.756,3.331-25.538-4.999-26.997
		c-2.758-23.239-8.323-43.67-11.999-65.992c7.503-0.829,14.062-2.602,20.998-3.999c-2.266-27.731-8.82-51.173-12.999-76.99
		c6.126-1.873,13.612-2.386,19.998-4c-4.054-32.859-11.637-63.975-19.998-94.988c13.811-5.521,29.764-8.898,45.994-11.999
		c-0.007,3.34,4.017,2.649,5,5c1.78-0.553,4.152-0.514,4.999-2c5.606,12.852,17.724,17.431,30.996,15.998
		c0.762,2.571,2.428,4.238,4.999,5c6.469-0.348,7.216-5.357,13.999-3c3.271,7.363-1.062,11.635,1,18.998
		c-4.534-1.561-8.128,3.848-10.999,6.999c1.254,11.848,6.766,18.214,13.998,25.997c-0.496,8.169-6.636,10.696-5.999,19.998
		c-2.487-0.154-3.096,1.571-4.999,2c-0.138,9.803,4.667,14.664,9.998,18.997c-0.805,6.805,1.387,10.612,6,11.999
		c-2.773,9.544,10.709,9.402,13.998,15.998c5.015-0.651,6.83-4.502,10.998-5.999c-0.591-4.258,0.72-6.613,1-9.999
		c2.632,1.034,3.368,3.965,5.999,4.999c4.612,0.055,9.775-0.443,12.999,1C738.408,625.794,749.249,631.396,745.906,643.92z"/>
</g>
<g id="Piscataquis_County">
	<path fill-rule="evenodd" clip-rule="evenodd" fill="#C1C1C1" 
		d="M273.966,435.945c1.784-2.678,2.704,3.883,5,4
		c5.349,0.684,3.711-5.621,8.999-4.999c-1.769-10.563-4.203-20.461-4.999-31.996c-3.089-2.589-7.109,0.295-10.999,0
		c-1.061-52.159,2.656-95.345,3-150.981c53.297,1.295,120.628,1.44,158.979,2c-1.562,75.837,0.318,148.574-1.999,227.971
		c-8.768,0.565-15.749,2.916-22.997,5c-0.62,9.812,1.475,29.824-2,39.995c5.616,2.014,12.646-2.487,19.997-2
		c4.714,23.949,10.124,47.202,13.999,71.991c-6.051,1.282-12.243,2.422-17.998,3.999c0.447,7.885,2.484,14.18,3.999,20.997
		c-39.416,7.245-77.348,15.974-116.985,22.997c-2.982,1.728,1.432,6.182-1,6.999c-5.58,2.087-13.152,2.18-18.998,4
		c-12.697-44.437-16.581-91.504-27.997-136.983c12.207-2.562,11.537-19.529,15.998-26.997c-7.107-6.798-24.251-16.486-16.998-27.997
		c0.743-5.242,6.858,3.322,8.999,0C273.641,453.845,275.973,445.114,273.966,435.945z"/>
</g>
<g id="York_County">
	<path fill-rule="evenodd" clip-rule="evenodd" fill="#C1C1C1" 
		d="M74.991,973.878c8.341,0.01,10.984-3.103,17.998,0
		c-0.63,7.682,4.496,13.078,0,18.998c1.636,4.363,8.359,3.64,8.999,8.999c3.711-1.964,2.708-3.435,6.999-1
		c2.016-1.316,3.383-3.283,4-5.999c5.645,4.687,9.686,10.978,14.998,15.998c-0.593,3.739-3.496,5.169-5,7.999
		c6.149,9.516,15.012,16.317,24.997,21.997c-5.298,4.887-5.998,14.929-3,22.997c1.926,1.941,4.023-1.052,6.999-1
		c-6.193,2.806-7.277,10.721-14.998,11.998c-0.893,16.439-24.352,10.311-29.996,21.998c4.522,7.163-9.422,16.085-1,24.996
		c-1.858,4.197-7.045,5.577-4,11.999c-4.341-0.342-5.246,2.753-6,5.999c-5.667,0.738-9.64-3.735-12.998,0
		c0.721,3.612,5.074,3.592,8.999,4c0.177,2.556-3.734,8.654-4.999,12.998c-3.502-2.164-5.344-5.988-7.999-8.999
		c-3.92-0.921-0.726,5.274-3,5.999c-13.858-3.142-16.882-21.427-10.999-35.995c-11.121-8.477-15.589-28.04-28.996-30.996
		c-3.003-7.373-4.519-19.229,2-23.997c-3.266-10.988,0.726-18.188,2-28.996c-8.044-13.287-2.245-40.417-4-59.993
		C46.844,971.431,68.642,962.748,74.991,973.878z"/>
</g>
<g id="Oxford_County">
	<path fill-rule="evenodd" clip-rule="evenodd" fill="#C1C1C1" 
		d="M38.995,569.929c5.379,1.286,7.77,5.43,12.999,8.999
		c-4.606,8.059,5.248,15.05,8.999,20.997c4.35,1.938,5.534-4.358,7-2c2.604,17.395,4.225,35.771,6.999,52.994
		c-3.708-0.709-4.291,1.708-7.999,0.999c2.893,25.771,10.902,46.425,9.999,75.991c10.798-3.534,17.613-11.05,28.997-13.998
		c4.334,14.663,11.454,26.541,15.998,40.994c-3.225,0.775-5.909,2.091-7.999,4c12.183,7.813,32.915,7.08,46.994,12.998
		c4.752,0.311-1.786,3.345-1,5.999c5.743,2.59,3.712,12.953,10.999,13.999c-0.319,2.318,0.161,3.838,1,4.999
		c-0.206,4.46-5.82,3.512-6.999,6.999c4.726,23.976-2.781,39.155-7.999,57.993c-13.445,9.553-19.142,26.853-30.996,37.995
		c0,2.333,0,4.666,0,6.999c-6.094-4.429-8.38,6.229-10.999,4.999c-1.862,0.956-3.342-2.994-4,0c-10.783-7.007-1.25-18.655-2-27.996
		c-0.473-5.883-4.596-6.552-5.999-11.999c-14.153,6.178-26.826,13.836-37.996,22.997c-3.988,0.989-3.011-2.988-6.999-1.999
		c-7.006,9.124,3.716,15.721,11.999,15.998c3.515,5.484,6.013,11.984,10.999,15.998c-5.605,8.087-4.219,21.309-12.998,27.996
		c-0.673,5.006,0.926,7.739,1,11.998c-13.224,0.39-22.019,1.941-32.996,6c-3.497-132.522-4.11-261.591-10.999-394.951
		C31.94,576.205,38.929,576.528,38.995,569.929z"/>
</g>
<g id="Penobscot_County">
	<path fill-rule="evenodd" clip-rule="evenodd" fill="#C1C1C1" 
		d="M501.938,509.936c10.042,5.919,28.946-1.344,37.995-5.999
		c10.931-3.067,21.987-6.009,33.995-7.999c6.508,31.124,14.292,60.58,18.998,90.989c-19.125,7.205-44.645,8.016-64.992,13.998
		c0.693,11.64,4.052,20.612,5,31.996c-7.519,1.147-14.836,2.495-21.997,3.999c0.971,8.028,3.122,14.876,3.999,22.998
		c-7.023,1.976-16.139,1.858-22.997,3.999c2.778,19.885,7.056,38.271,9.999,57.993c-11.329,4.336-31.062,0.268-33.996,12.998
		c-3.977,0.31-5.022-2.31-8.999-2c-6.507,1.825-7.908,8.756-10.998,13.998c-2.877-7.752-12.058-4.863-15.998-9.998
		c-17.765,5.767-42.044,8.673-61.993,14.998c-3.295-5.704-3.462-14.536-5-21.998c-4.737-0.737-6.874,1.125-10.999,1
		c-2.855-29.852-8.694-59.039-14.998-87.988c29.737-6.925,61.496-11.829,90.989-18.998c-0.877-7.455-2.83-13.834-4-20.997
		c6.497-0.836,12.446-2.22,17.998-4c-3.653-27.343-9.754-52.238-14.998-77.99c-6.549,0.45-10.697,3.301-17.998,3
		c1.663-10.077,0.681-26.75,1-34.996c7.715-1.617,15.125-3.54,22.997-5c1.205-52.579,0.723-123.43,2-184.977
		c20.781,1.199,45.758,2.466,63.992,3C500.564,370.75,505.216,438.055,501.938,509.936z"/>
</g>
<g id="Aroostook_County">
	<path fill-rule="evenodd" clip-rule="evenodd" fill="#C1C1C1" 
		d="M435.945,250.969c-64.796-1.387-139.628-0.833-212.973-3
		c0.15-35.78,23.161-56.307,38.995-78.99c34.537-49.475,68.282-98.502,102.987-145.982c11.527,0.394,16.396,9.616,27.997,6.999
		c-3.94,13.811-1.747,33.583,2,47.994c8.34,4.991,18.827,7.836,22.997,16.998c20.208-3.076,28.533-19.345,49.994-15.998
		c5.058-2.275,9.369-5.296,10.999-10.999c4.934,3.695,7.261-2.324,10.998-3c8.604,2.351,14.228,5.22,22.997,1
		c1.763-4.967-0.25-8.692,1-14.998c12.626-6.175,20.434,0.615,31.996,3c8.526,15.115,25.803,20.2,36.995,32.996
		c4.043,4.622,9.616,12.429,12.999,17.998c4.698,7.734,10.496,12.119,18.997,16.998c4.455,92.56-1.185,188.859,3,280.965
		c0.214,4.708,0.493,12.465,2.999,16.998c-7.516,4.395-6.983,17.88,0,22.997c-0.005,3.661-5.865,1.467-4.999,6
		c0.203,14.814-2.103,20.755-2,33.996c-4.904,0.732-9.327,1.553-13.998,0c-3.761-0.761-0.689,5.31-4.999,4
		c-31.652,5.037-59.208,19.413-89.989,21.998c-1.515-37.419,3.835-63.817,2-91.989c-0.599-9.194-3.544-18.283-3.999-27.997
		c-1.373-29.25,4.987-60.155,0.999-89.988c-19.359-0.997-45.652-1.845-67.991-3C435.945,280.965,435.945,265.967,435.945,250.969z"
		/>
</g>
</svg>
